<svg width="67" height="23" viewBox="0 0 67 23" fill="none" xmlns="http://www.w3.org/2000/svg">
<path d="M10.592 22.4C8.30933 22.3787 6.37867 22.0053 4.8 21.28C3.22133 20.5547 2.02667 19.392 1.216 17.792C0.405333 16.1707 0 14.0267 0 11.36C0 9.03467 0.373333 7.02933 1.12 5.344C1.888 3.65867 2.99733 2.35733 4.448 1.44C5.89867 0.501333 7.68 0.0319996 9.792 0.0319996C11.648 0.0319996 13.2693 0.298667 14.656 0.832001C16.0427 1.36533 17.1307 2.13333 17.92 3.136C18.7307 4.11733 19.1787 5.29067 19.264 6.656C19.3493 7.95733 19.1253 9.088 18.592 10.048C18.08 11.008 17.312 11.8613 16.288 12.608C17.0347 12.736 17.7067 13.152 18.304 13.856C18.9227 14.56 19.232 15.4133 19.232 16.416C19.232 17.0987 19.0933 17.792 18.816 18.496C18.5387 19.2 18.0693 19.8507 17.408 20.448C16.768 21.0453 15.8827 21.5253 14.752 21.888C13.6427 22.2293 12.256 22.4 10.592 22.4ZM8.384 10.464C8.832 10.656 9.36533 10.752 9.984 10.752C10.6027 10.7307 11.1467 10.56 11.616 10.24C12.1067 9.92 12.352 9.42933 12.352 8.768C12.352 8.27733 12.2027 7.88267 11.904 7.584C11.6267 7.28533 11.2747 7.08267 10.848 6.976C10.4213 6.848 9.984 6.79467 9.536 6.816C9.088 6.83733 8.704 6.93333 8.384 7.104C7.97867 7.296 7.70133 7.62667 7.552 8.096C7.424 8.56533 7.424 9.03467 7.552 9.504C7.70133 9.952 7.97867 10.272 8.384 10.464ZM8.384 17.952C8.832 18.1227 9.36533 18.208 9.984 18.208C10.6027 18.1867 11.1467 18.0373 11.616 17.76C12.1067 17.4827 12.352 17.056 12.352 16.48C12.352 16.0533 12.2027 15.712 11.904 15.456C11.6267 15.1787 11.2747 14.9867 10.848 14.88C10.4213 14.7733 9.984 14.7413 9.536 14.784C9.088 14.8053 8.704 14.88 8.384 15.008C7.97867 15.1787 7.70133 15.4667 7.552 15.872C7.424 16.2773 7.424 16.6827 7.552 17.088C7.70133 17.4933 7.97867 17.7813 8.384 17.952Z" fill="#363A33"/>
<path d="M26.65 22.464C25.0713 22.4853 23.6847 22.1653 22.49 21.504C21.3167 20.8213 20.3887 19.904 19.706 18.752C19.0447 17.5787 18.6927 16.288 18.65 14.88C18.6287 13.4293 18.9593 12.1493 19.642 11.04C20.3247 9.90933 21.274 9.01333 22.49 8.352C23.706 7.69067 25.0927 7.36 26.65 7.36C28.186 7.33867 29.5407 7.65867 30.714 8.32C31.9087 8.98133 32.858 9.87733 33.562 11.008C34.266 12.1387 34.6393 13.4293 34.682 14.88C34.7033 16.2667 34.3727 17.536 33.69 18.688C33.0073 19.8187 32.058 20.7253 30.842 21.408C29.626 22.0693 28.2287 22.4213 26.65 22.464ZM26.746 17.792C27.322 17.792 27.8233 17.568 28.25 17.12C28.6767 16.672 28.89 16.1493 28.89 15.552C28.89 14.9547 28.6767 14.4427 28.25 14.016C27.8233 13.568 27.322 13.344 26.746 13.344C26.17 13.344 25.6687 13.568 25.242 14.016C24.8153 14.4427 24.602 14.9547 24.602 15.552C24.602 16.1493 24.8153 16.672 25.242 17.12C25.6687 17.568 26.17 17.792 26.746 17.792Z" fill="#363A33"/>
<path d="M43.234 22.432C41.698 22.432 40.4073 22.2187 39.362 21.792C38.3167 21.344 37.4527 20.768 36.77 20.064C36.1087 19.36 35.586 18.592 35.202 17.76C34.8393 16.928 34.5727 16.1067 34.402 15.296C34.2313 14.4853 34.1247 13.7493 34.082 13.088C34.0607 12.4267 34.05 11.936 34.05 11.616C34.05 10.6347 34.1033 9.61067 34.21 8.544C34.3167 7.47733 34.4873 6.44267 34.722 5.44C34.9567 4.416 35.266 3.49867 35.65 2.688C36.0553 1.87733 36.5353 1.22667 37.09 0.736C37.6447 0.245333 38.306 0 39.074 0C39.7567 0 40.3753 0.224 40.93 0.672001C41.506 1.12 41.794 1.81333 41.794 2.752C41.794 3.66933 41.6447 4.576 41.346 5.472C41.0687 6.34667 40.8873 7.24267 40.802 8.16C41.2927 7.88267 41.8153 7.69067 42.37 7.584C42.9247 7.456 43.4687 7.392 44.002 7.392C45.1327 7.392 46.2207 7.65867 47.266 8.192C48.3113 8.704 49.1647 9.49333 49.826 10.56C50.5087 11.6267 50.85 12.992 50.85 14.656C50.85 15.9573 50.5407 17.2053 49.922 18.4C49.3247 19.5947 48.45 20.5653 47.298 21.312C46.1673 22.0587 44.8127 22.432 43.234 22.432ZM43.042 17.376C43.618 17.376 44.1193 17.1627 44.546 16.736C44.994 16.288 45.218 15.7653 45.218 15.168C45.218 14.5707 44.994 14.048 44.546 13.6C44.1193 13.152 43.618 12.928 43.042 12.928C42.466 12.928 41.9647 13.152 41.538 13.6C41.1113 14.048 40.898 14.5707 40.898 15.168C40.898 15.7653 41.1113 16.288 41.538 16.736C41.9647 17.1627 42.466 17.376 43.042 17.376Z" fill="#363A33"/>
<path d="M58.2312 22.464C56.6526 22.4853 55.2659 22.1653 54.0712 21.504C52.8979 20.8213 51.9699 19.904 51.2872 18.752C50.6259 17.5787 50.2739 16.288 50.2312 14.88C50.2099 13.4293 50.5406 12.1493 51.2232 11.04C51.9059 9.90933 52.8552 9.01333 54.0712 8.352C55.2872 7.69067 56.6739 7.36 58.2312 7.36C59.7672 7.33867 61.1219 7.65867 62.2952 8.32C63.4899 8.98133 64.4392 9.87733 65.1432 11.008C65.8473 12.1387 66.2206 13.4293 66.2632 14.88C66.2846 16.2667 65.9539 17.536 65.2712 18.688C64.5886 19.8187 63.6392 20.7253 62.4232 21.408C61.2072 22.0693 59.8099 22.4213 58.2312 22.464ZM58.3272 17.792C58.9032 17.792 59.4046 17.568 59.8312 17.12C60.2579 16.672 60.4712 16.1493 60.4712 15.552C60.4712 14.9547 60.2579 14.4427 59.8312 14.016C59.4046 13.568 58.9032 13.344 58.3272 13.344C57.7512 13.344 57.2499 13.568 56.8232 14.016C56.3966 14.4427 56.1832 14.9547 56.1832 15.552C56.1832 16.1493 56.3966 16.672 56.8232 17.12C57.2499 17.568 57.7512 17.792 58.3272 17.792Z" fill="#363A33"/>
</svg>
