<svg width="374" height="374" viewBox="0 0 374 374" fill="none" xmlns="http://www.w3.org/2000/svg">
<path d="M285.099 274.923C291.614 270.085 301.294 270.062 307.832 274.867C310.59 276.895 312.878 279.918 312.997 283.338C313.115 286.76 310.387 290.333 306.965 290.235C304.514 290.166 302.437 288.366 301.032 286.357C299.626 284.348 298.658 282.043 297.118 280.135C294.289 276.631 289.533 274.792 285.082 275.48" fill="#FFEA7C"/>
<path d="M123.515 295.331C121.001 299.853 120.246 305.141 121.39 310.187C122.349 314.418 124.148 319.743 127.514 324.426C134.428 334.046 151.563 338.254 163.287 337.653C175.011 337.052 199.773 337.709 226.115 323.223C245.989 312.294 259.182 299.263 254.072 278.176C248.961 257.089 224.301 250.776 177.11 260.095C143.814 266.67 129.222 285.068 123.515 295.331Z" fill="#E49D67"/>
<path opacity="0.2" d="M253.979 278.252C253.469 276.148 252.755 274.197 251.852 272.388C252.848 278.355 248.992 284.468 243.983 289.139C235.654 296.905 225.688 304.32 215.683 309.759C205.677 315.198 194.821 318.911 183.844 321.943C172.354 325.118 159.384 324.758 147.61 322.904C136.037 321.082 125.588 317.055 120.965 306.436C121.017 307.702 121.182 308.969 121.467 310.222C122.425 314.448 124.221 319.766 127.583 324.443C134.489 334.05 151.602 338.253 163.311 337.653C175.02 337.053 199.751 337.709 226.059 323.242C245.907 312.327 259.083 299.312 253.979 278.252Z" fill="black"/>
<path d="M248.215 266.835C248.215 266.835 248.325 266.927 248.53 267.121C248.743 267.326 249.042 267.615 249.432 267.992C250.105 268.846 251.153 270.176 251.608 272.251C252.063 274.297 251.917 276.982 250.793 279.75C249.715 282.533 247.821 285.422 245.22 288.12C242.558 290.757 239.467 293.437 236.059 296.213C232.64 298.972 228.868 301.778 224.742 304.498C220.619 307.22 216.134 309.854 211.29 312.197C206.448 314.543 201.267 316.612 195.869 318.446C193.169 319.365 190.479 320.204 187.815 320.986C185.151 321.756 182.521 322.538 179.873 323.053C174.587 324.103 169.38 324.495 164.438 324.463C159.492 324.448 154.801 324.041 150.446 323.456C146.093 322.871 142.051 322.1 138.484 320.959C134.922 319.819 131.808 318.392 129.361 316.69C126.899 315.009 125.08 313.159 123.802 311.502C122.558 309.817 121.765 308.39 121.304 307.393C121.086 306.898 120.918 306.518 120.799 306.247C120.687 305.989 120.639 305.853 120.639 305.853C120.639 305.853 120.711 305.979 120.834 306.233C120.96 306.499 121.139 306.873 121.371 307.36C121.852 308.345 122.663 309.753 123.916 311.414C125.203 313.047 127.023 314.867 129.476 316.519C131.915 318.192 135.014 319.592 138.561 320.71C142.115 321.829 146.141 322.582 150.487 323.153C154.832 323.724 159.51 324.118 164.439 324.124C169.364 324.147 174.546 323.749 179.801 322.7C182.43 322.187 185.047 321.406 187.712 320.635C190.372 319.853 193.057 319.014 195.751 318.097C201.137 316.267 206.305 314.206 211.134 311.872C215.963 309.541 220.438 306.923 224.556 304.216C228.677 301.51 232.448 298.719 235.868 295.976C239.274 293.219 242.38 290.546 245.034 287.939C247.626 285.276 249.518 282.421 250.602 279.676C251.732 276.945 251.895 274.305 251.47 272.284C251.044 270.235 250.027 268.906 249.377 268.042C249.001 267.657 248.712 267.361 248.506 267.15C248.309 266.946 248.215 266.835 248.215 266.835Z" fill="#263238"/>
<path d="M130.144 314.486C130.137 314.497 130.051 314.449 129.893 314.349C129.739 314.245 129.5 314.105 129.219 313.887C128.647 313.466 127.857 312.8 127.003 311.853C126.151 310.908 125.244 309.669 124.516 308.142C123.776 306.625 123.237 304.811 123.085 302.861C122.952 300.908 123.229 299.035 123.748 297.428C124.26 295.814 124.986 294.461 125.71 293.413C126.433 292.363 127.132 291.6 127.647 291.111C127.898 290.86 128.118 290.691 128.258 290.569C128.402 290.45 128.482 290.392 128.49 290.401C128.553 290.461 127.303 291.451 125.927 293.558C124.555 295.624 123.177 299 123.452 302.835C123.738 306.667 125.569 309.812 127.198 311.683C128.839 313.589 130.199 314.42 130.144 314.486Z" fill="white"/>
<path d="M137.661 318.153C137.627 318.249 136.618 317.981 135.407 317.554C134.196 317.126 133.242 316.702 133.276 316.606C133.31 316.51 134.319 316.778 135.53 317.206C136.74 317.632 137.694 318.057 137.661 318.153Z" fill="white"/>
<path d="M77.4981 176.843C73.7938 175.864 62.9912 174.317 60.8963 179.563C59.8956 182.069 59.16 184.407 61.9579 186.988C65.6112 190.357 74.1559 193.494 76.6647 194.313C79.5874 195.267 85.624 196.926 89.1568 195.452C91.1922 194.603 92.4629 191.955 92.4154 189.903C92.2963 184.835 85.5935 178.984 77.4981 176.843Z" fill="#AD3030"/>
<path d="M77.5304 177.155C75.7884 176.686 62.8179 173.711 61.1886 180.259C59.7585 186.008 72.5972 190.046 77.2037 191.55C81.8102 193.053 90.9565 195.002 91.9452 190.255C93.0224 185.079 84.4451 179.019 77.5304 177.155Z" fill="#F75757"/>
<path d="M74.9086 184.634C74.9107 184.622 75.0184 184.752 74.9398 184.988C74.8845 185.245 74.5202 185.432 74.1191 185.471C73.314 185.607 72.0979 185.529 71.0249 184.789C70.9626 184.731 70.8974 184.651 70.8889 184.544C70.8782 184.439 70.9413 184.335 71.0164 184.284C71.1681 184.178 71.3283 184.167 71.4679 184.134C71.7556 184.075 72.0355 184.021 72.3063 183.987C72.847 183.912 73.3466 183.937 73.7513 184.018C74.1588 184.095 74.4692 184.245 74.6563 184.382C74.8412 184.521 74.9086 184.634 74.9086 184.634C74.8979 184.643 74.8129 184.551 74.6223 184.43C74.4316 184.312 74.129 184.183 73.7314 184.121C73.3339 184.055 72.8512 184.041 72.3233 184.122C72.0589 184.16 71.7832 184.215 71.4969 184.276C71.3538 184.308 71.2028 184.328 71.1036 184.401C71.0037 184.471 71.0157 184.588 71.1242 184.68C72.1234 185.366 73.3218 185.48 74.1035 185.368C74.506 185.335 74.8171 185.191 74.8859 184.967C74.9738 184.76 74.8958 184.637 74.9086 184.634Z" fill="#AD3030"/>
<path d="M76.8726 185.574C76.8534 185.567 77.0157 185.493 77.1525 185.679C77.268 185.875 77.2205 186.166 77.2177 186.514C77.195 186.857 77.1185 187.322 76.7493 187.662C76.3729 188.025 75.7202 187.965 75.2688 187.658C74.7833 187.373 74.5722 186.682 74.9038 186.264C75.0541 186.062 75.2575 185.945 75.4389 185.848C75.6231 185.753 75.7925 185.666 75.9584 185.599C76.2872 185.459 76.5948 185.446 76.7889 185.499C76.9853 185.55 77.0675 185.635 77.0625 185.639C77.071 185.66 76.6401 185.381 75.9995 185.695C75.7054 185.854 75.2801 186.009 75.0151 186.344C74.7479 186.692 74.9166 187.276 75.3517 187.536C75.7691 187.816 76.3389 187.867 76.66 187.561C76.9902 187.268 77.0809 186.841 77.1142 186.506C77.1327 186.167 77.1872 185.867 77.1043 185.71C77.0058 185.546 76.8662 185.583 76.8726 185.574Z" fill="#AD3030"/>
<path d="M81.085 187.412C81.085 187.412 81.1714 187.499 81.1991 187.708C81.2125 187.811 81.2111 187.942 81.1665 188.085C81.1211 188.222 81.0269 188.4 80.8221 188.462C80.4294 188.508 80.0007 188.357 79.5804 188.133C79.1602 187.922 78.6634 187.63 78.404 187.101C78.2842 186.847 78.2155 186.527 78.3778 186.262C78.5599 185.988 78.9022 186.001 79.1276 186.05C79.6052 186.159 79.9993 186.353 80.304 186.555C80.9305 186.947 81.1204 187.407 81.085 187.412C81.0736 187.418 81.0311 187.312 80.9014 187.163C80.7725 187.015 80.5492 186.829 80.2473 186.642C79.9461 186.458 79.5549 186.278 79.1014 186.183C78.8845 186.139 78.6173 186.148 78.499 186.34C78.3806 186.529 78.4253 186.807 78.5365 187.037C78.7683 187.514 79.2289 187.798 79.6414 188.011C80.0489 188.243 80.4677 188.382 80.7951 188.36C81.1055 188.254 81.1488 187.883 81.141 187.712C81.1339 187.517 81.0694 187.417 81.085 187.412Z" fill="#AD3030"/>
<path d="M73.4508 182.988C73.4324 182.981 73.6053 183.076 73.5182 183.324C73.3927 183.55 73.0058 183.628 72.6195 183.533C72.2326 183.446 71.7748 183.339 71.2794 183.159C70.7932 182.964 70.2412 182.738 69.8365 182.223C69.7422 182.088 69.7295 181.851 69.8755 181.724C70.0151 181.599 70.1845 181.589 70.3312 181.586C70.6253 181.6 70.8946 181.637 71.1547 181.689C71.6734 181.792 72.1185 181.976 72.465 182.173C72.8109 182.373 73.0596 182.58 73.2198 182.733C73.3821 182.885 73.4572 182.984 73.4508 182.988C73.4289 183.012 73.1036 182.637 72.4154 182.263C72.071 182.083 71.6352 181.915 71.1284 181.822C70.8776 181.774 70.6033 181.74 70.3312 181.73C70.2008 181.731 70.0583 181.752 69.9768 181.83C69.8939 181.908 69.8925 182.035 69.9641 182.149C70.3064 182.587 70.8627 182.845 71.3276 183.031C71.8088 183.215 72.2645 183.331 72.6422 183.431C73.01 183.536 73.3544 183.469 73.4678 183.295C73.5571 183.111 73.4232 182.99 73.4508 182.988Z" fill="#AD3030"/>
<path d="M75.3417 182.216C75.3417 182.216 75.4098 182.329 75.3566 182.547C75.329 182.651 75.2496 182.786 75.0972 182.852C74.9491 182.921 74.7542 182.918 74.5685 182.86C74.2064 182.729 73.7932 182.564 73.3553 182.305C72.9279 182.046 72.4772 181.649 72.283 181.072C72.2703 181.028 72.2575 180.984 72.2454 180.943L72.2447 180.939L72.244 180.933C72.2405 180.9 72.2376 180.87 72.2348 180.841L72.2334 180.83L72.2355 180.82C72.3043 180.493 72.6331 180.323 72.9088 180.334C73.193 180.34 73.4311 180.466 73.6359 180.585C74.0406 180.832 74.3985 181.063 74.6741 181.294C74.9498 181.525 75.1426 181.746 75.2439 181.921C75.3453 182.098 75.3488 182.216 75.3417 182.216C75.3297 182.219 75.3077 182.11 75.1971 181.951C75.0866 181.793 74.8874 181.588 74.6103 181.374C74.334 181.159 73.9725 180.939 73.5686 180.701C73.3687 180.588 73.1448 180.479 72.9081 180.478C72.6777 180.469 72.4262 180.618 72.3808 180.849L72.3815 180.827C72.3843 180.856 72.3879 180.886 72.3914 180.919L72.39 180.909C72.4007 180.947 72.4127 180.987 72.4247 181.028C72.6012 181.554 73.0193 181.935 73.4283 182.191C73.8428 182.445 74.2617 182.626 74.6011 182.762C74.9484 182.902 75.2553 182.734 75.3027 182.531C75.3672 182.337 75.3261 182.216 75.3417 182.216Z" fill="#AD3030"/>
<path d="M79.1971 182.12C79.1971 182.12 79.2708 182.217 79.2921 182.429C79.3155 182.627 79.263 182.997 78.9179 183.212C78.5792 183.423 78.1235 183.445 77.6359 183.474C77.39 183.478 77.1079 183.446 76.8677 183.284C76.6317 183.124 76.4595 182.864 76.3971 182.572C76.2433 181.88 76.7741 181.279 77.2978 181.129C77.8428 180.967 78.3439 181.148 78.6437 181.362L78.6401 181.36C78.9073 181.523 79.037 181.741 79.1114 181.883C79.1851 182.031 79.2042 182.117 79.1971 182.12C79.1674 182.148 79.0873 181.748 78.5948 181.443L78.5912 181.441C78.3006 181.252 77.8272 181.1 77.3389 181.257C76.8684 181.4 76.4042 181.945 76.5417 182.542C76.5955 182.798 76.7472 183.027 76.9485 183.165C77.1504 183.304 77.4006 183.339 77.6352 183.339C78.1079 183.32 78.5622 183.302 78.8626 183.124C79.173 182.947 79.2382 182.623 79.2347 182.432C79.2319 182.231 79.1837 182.124 79.1971 182.12Z" fill="#AD3030"/>
<path d="M82.6777 184.723C82.6841 184.719 82.6891 184.862 82.519 185.015C82.3567 185.176 82.0052 185.237 81.6331 185.154C81.21 185.072 80.777 184.988 80.3291 184.901C80.0867 184.848 79.821 184.82 79.5567 184.694C79.3015 184.581 79.0379 184.265 79.1718 183.921C79.2654 183.712 79.4631 183.614 79.6346 183.549C79.8104 183.485 79.9882 183.444 80.1633 183.422C80.5141 183.378 80.8521 183.407 81.1526 183.47C81.4474 183.528 81.7309 183.593 81.9584 183.716C82.1866 183.835 82.3539 183.989 82.48 184.123L82.4268 184.181L82.4261 184.18L82.4779 184.121C82.8017 184.439 82.6869 184.747 82.6777 184.723C82.66 184.734 82.7373 184.453 82.424 184.178L82.4757 184.119L82.4765 184.12L82.4233 184.177C82.2936 184.055 82.1278 183.915 81.9102 183.811C81.6934 183.704 81.4255 183.648 81.1271 183.596C80.8351 183.541 80.5134 183.519 80.181 183.564C79.8699 183.619 79.4525 183.695 79.3072 183.978C79.2129 184.207 79.3965 184.465 79.6204 184.564C79.8486 184.677 80.113 184.712 80.3561 184.768C80.8011 184.865 81.232 184.959 81.6523 185.051C82.0158 185.143 82.3213 185.102 82.4828 184.97C82.648 184.846 82.665 184.717 82.6777 184.723Z" fill="#AD3030"/>
<path d="M83.2065 186.408C83.2129 186.403 83.2908 186.501 83.4489 186.67C83.5112 186.761 83.653 186.858 83.6282 187.069C83.5559 187.269 83.3107 187.323 83.1058 187.301C82.2823 187.169 81.1818 186.822 80.0875 186.183C79.9529 186.104 79.8019 186.009 79.719 185.846C79.6318 185.696 79.6524 185.459 79.8111 185.349C80.1293 185.154 80.4362 185.288 80.6956 185.311C81.2328 185.396 81.7189 185.502 82.1052 185.659C82.4928 185.814 82.7735 186.008 82.9514 186.156C83.1299 186.303 83.2065 186.408 83.2065 186.408C83.1838 186.437 82.833 186.042 82.0676 185.757C81.687 185.617 81.2101 185.523 80.6743 185.446C80.4135 185.415 80.1038 185.324 79.899 185.464C79.8055 185.532 79.7892 185.666 79.8508 185.781C79.9075 185.896 80.0308 185.98 80.1626 186.056C81.2349 186.684 82.3277 187.044 83.1165 187.198C83.3071 187.228 83.5006 187.172 83.5495 187.046C83.5785 186.921 83.4637 186.793 83.4049 186.707C83.2611 186.527 83.1959 186.414 83.2065 186.408Z" fill="#AD3030"/>
<path d="M66.338 177.411C66.333 177.517 65.8745 177.571 65.3536 177.746C64.8299 177.915 64.4302 178.144 64.3629 178.062C64.2955 177.991 64.6392 177.591 65.2381 177.396C65.8355 177.197 66.3493 177.313 66.338 177.411Z" fill="white"/>
<path d="M64.0177 183.586C63.9993 183.623 63.7038 183.53 63.3416 183.197C62.9795 182.871 62.5961 182.274 62.4558 181.533C62.3183 180.792 62.4593 180.096 62.6783 179.661C62.8959 179.22 63.1375 179.027 63.168 179.054C63.2155 179.09 63.0582 179.334 62.9207 179.758C62.7804 180.18 62.6967 180.799 62.8186 181.465C62.9455 182.13 63.2481 182.676 63.5323 183.019C63.8136 183.365 64.0496 183.534 64.0177 183.586Z" fill="white"/>
<path d="M247.902 115.624C242.934 118.771 229.922 129.314 233.64 137.146C235.416 140.886 237.279 144.154 243.104 143.698C250.708 143.103 263.154 136.758 266.692 134.79C270.815 132.497 278.982 127.434 281.009 121.921C282.177 118.743 280.523 114.551 278.164 112.464C272.336 107.308 258.758 108.747 247.902 115.624Z" fill="#AD3030"/>
<path d="M248.287 115.914C245.941 117.385 229.06 128.878 234.73 137.544C239.707 145.151 257.647 134.916 264.147 131.301C270.646 127.686 282.383 119.425 278.071 113.36C273.37 106.747 257.599 110.076 248.287 115.914Z" fill="#F75757"/>
<path d="M253.968 126.668C253.956 126.658 254.208 126.677 254.385 127.008C254.472 127.164 254.522 127.402 254.452 127.652C254.39 127.903 254.24 128.156 254.063 128.414C253.375 129.453 252.015 130.73 250.086 131.161C249.96 131.171 249.813 131.161 249.695 131.067C249.578 130.978 249.531 130.818 249.55 130.687C249.586 130.422 249.738 130.231 249.847 130.039C250.08 129.653 250.31 129.283 250.552 128.943C251.028 128.258 251.573 127.723 252.081 127.351C252.589 126.972 253.076 126.777 253.422 126.706C253.77 126.637 253.968 126.668 253.968 126.668C253.967 126.684 253.773 126.677 253.437 126.762C253.102 126.849 252.635 127.053 252.145 127.435C251.653 127.813 251.128 128.342 250.664 129.022C250.429 129.36 250.202 129.728 249.972 130.115C249.86 130.309 249.721 130.499 249.697 130.703C249.663 130.913 249.851 131.049 250.075 131.015C251.914 130.601 253.289 129.361 253.978 128.356C254.159 128.103 254.308 127.864 254.373 127.631C254.446 127.399 254.408 127.188 254.334 127.035C254.183 126.716 253.957 126.679 253.968 126.668Z" fill="#AD3030"/>
<path d="M257.072 125.436C257.05 125.451 257.139 125.203 257.479 125.246C257.639 125.271 257.799 125.392 257.951 125.54C258.107 125.685 258.285 125.85 258.469 126.048C258.827 126.432 259.26 126.999 259.256 127.754C259.258 128.124 259.09 128.513 258.802 128.793C258.518 129.076 258.144 129.276 257.735 129.378C257.326 129.479 256.883 129.453 256.523 129.261C256.163 129.078 255.893 128.737 255.829 128.365C255.759 127.996 255.836 127.649 255.914 127.344C255.997 127.039 256.076 126.757 256.171 126.501C256.352 125.988 256.65 125.63 256.908 125.466C257.165 125.296 257.342 125.292 257.342 125.292C257.348 125.307 257.178 125.336 256.941 125.513C256.703 125.686 256.433 126.033 256.269 126.537C256.183 126.786 256.11 127.071 256.033 127.374C255.961 127.675 255.896 128.007 255.963 128.339C256.023 128.67 256.262 128.967 256.589 129.133C256.915 129.304 257.318 129.328 257.7 129.234C258.462 129.054 259.129 128.452 259.12 127.75C259.133 127.056 258.736 126.504 258.391 126.118C258.024 125.744 257.743 125.373 257.467 125.302C257.17 125.246 257.071 125.453 257.072 125.436Z" fill="#AD3030"/>
<path d="M263.538 122.617C263.538 122.617 263.723 122.621 263.98 122.809C264.107 122.902 264.248 123.04 264.36 123.238C264.465 123.429 264.56 123.715 264.42 123.995C264.069 124.468 263.456 124.793 262.767 125.028C262.092 125.279 261.253 125.528 260.402 125.271C259.997 125.144 259.578 124.89 259.456 124.453C259.341 123.991 259.696 123.63 259.983 123.427C260.596 123.006 261.224 122.763 261.764 122.629C262.304 122.497 262.759 122.459 263.071 122.492C263.385 122.524 263.538 122.617 263.538 122.617C263.534 122.63 263.372 122.563 263.068 122.549C262.764 122.533 262.319 122.587 261.791 122.729C261.265 122.873 260.651 123.124 260.064 123.537C259.786 123.737 259.499 124.057 259.596 124.418C259.693 124.772 260.064 125.014 260.446 125.131C261.239 125.372 262.048 125.144 262.72 124.901C263.406 124.68 264.005 124.354 264.328 123.945C264.45 123.721 264.381 123.46 264.288 123.277C264.19 123.089 264.062 122.95 263.946 122.855C263.71 122.661 263.529 122.634 263.538 122.617Z" fill="#AD3030"/>
<path d="M250.595 126.592C250.595 126.592 250.643 126.586 250.731 126.61C250.813 126.633 250.964 126.691 251.027 126.87C251.143 127.236 250.832 127.742 250.324 128.072C249.821 128.412 249.222 128.815 248.504 129.18C248.144 129.361 247.755 129.531 247.331 129.655C246.907 129.763 246.464 129.904 245.97 129.822C245.728 129.787 245.473 129.571 245.48 129.296C245.484 129.028 245.641 128.829 245.789 128.665C246.107 128.352 246.43 128.087 246.757 127.849C247.41 127.374 248.078 127.064 248.656 126.875C249.827 126.515 250.595 126.592 250.595 126.592C250.599 126.63 249.835 126.595 248.69 126.974C248.124 127.172 247.475 127.486 246.838 127.958C246.521 128.192 246.196 128.464 245.895 128.763C245.757 128.914 245.626 129.101 245.627 129.293C245.626 129.489 245.792 129.641 246.003 129.678C246.426 129.752 246.884 129.622 247.291 129.517C247.704 129.398 248.088 129.234 248.443 129.059C249.154 128.706 249.759 128.312 250.265 127.986C250.769 127.677 251.058 127.208 250.973 126.888C250.928 126.734 250.798 126.67 250.722 126.639C250.641 126.606 250.594 126.599 250.595 126.592Z" fill="#AD3030"/>
<path d="M251.696 123.656C251.696 123.656 251.889 123.707 252.071 123.992C252.156 124.131 252.22 124.354 252.136 124.587C252.059 124.819 251.857 125.028 251.6 125.174C251.078 125.44 250.457 125.729 249.714 125.949C248.981 126.157 248.073 126.247 247.235 125.87C247.17 125.842 247.11 125.807 247.052 125.778L247.049 125.776L247.044 125.773C247.004 125.742 246.967 125.714 246.931 125.688L246.922 125.681L246.916 125.673C246.635 125.277 246.776 124.746 247.067 124.457C247.361 124.153 247.745 124.015 248.091 123.909C248.789 123.71 249.421 123.544 249.966 123.473C250.509 123.4 250.958 123.41 251.259 123.474C251.563 123.538 251.696 123.656 251.696 123.656C251.69 123.668 251.546 123.574 251.25 123.528C250.955 123.483 250.514 123.488 249.981 123.574C249.448 123.657 248.821 123.832 248.13 124.037C247.792 124.144 247.431 124.283 247.172 124.556C246.913 124.814 246.809 125.272 247.035 125.586L247.02 125.571C247.056 125.598 247.093 125.625 247.133 125.655L247.125 125.65C247.179 125.678 247.235 125.71 247.296 125.736C248.086 126.092 248.96 126.016 249.678 125.819C250.402 125.613 251.038 125.329 251.548 125.084C251.796 124.951 251.981 124.765 252.058 124.56C252.139 124.356 252.092 124.157 252.02 124.021C251.866 123.744 251.682 123.669 251.696 123.656Z" fill="#AD3030"/>
<path d="M255.613 119.219C255.613 119.219 255.796 119.247 256.051 119.446C256.292 119.629 256.643 120.068 256.525 120.668C256.409 121.256 255.959 121.791 255.483 122.365C255.232 122.642 254.907 122.92 254.485 123.017C254.07 123.114 253.607 123.038 253.223 122.808C252.779 122.556 252.496 122.1 252.402 121.644C252.305 121.185 252.372 120.719 252.552 120.338C252.928 119.568 253.645 119.193 254.192 119.077L254.188 119.078C254.643 118.946 255.02 119.022 255.258 119.082C255.497 119.148 255.613 119.219 255.613 119.219C255.61 119.229 255.484 119.181 255.245 119.131C255.009 119.086 254.64 119.03 254.216 119.167L254.214 119.168L254.212 119.168C253.689 119.295 253.014 119.669 252.672 120.395C252.334 121.085 252.462 122.2 253.298 122.682C253.651 122.894 254.078 122.963 254.453 122.878C254.831 122.792 255.137 122.54 255.383 122.274C255.856 121.718 256.309 121.186 256.423 120.649C256.545 120.1 256.238 119.684 256.015 119.492C255.779 119.285 255.606 119.234 255.613 119.219Z" fill="#AD3030"/>
<path d="M262.174 118.016C262.174 118.016 262.211 118.046 262.251 118.124C262.289 118.202 262.33 118.33 262.323 118.497C262.329 118.843 262.036 119.29 261.553 119.618C261.049 119.984 260.497 120.384 259.903 120.815C259.589 121.031 259.279 121.3 258.871 121.461C258.486 121.627 257.88 121.588 257.649 121.108C257.518 120.803 257.608 120.487 257.713 120.23C257.824 119.97 257.961 119.729 258.118 119.511C258.43 119.073 258.811 118.724 259.193 118.452C259.566 118.179 259.93 117.93 260.3 117.801C260.668 117.668 261.012 117.639 261.294 117.633L261.3 117.711H261.298L261.29 117.633C261.616 117.63 261.869 117.702 262.004 117.818C262.143 117.925 262.174 118.016 262.174 118.016C262.175 118.043 261.941 117.652 261.294 117.712L261.286 117.634H261.289L261.295 117.712C261.019 117.727 260.686 117.765 260.337 117.901C259.985 118.033 259.639 118.278 259.268 118.556C258.898 118.827 258.533 119.169 258.234 119.593C258.084 119.804 257.953 120.037 257.848 120.286C257.747 120.529 257.679 120.812 257.783 121.047C257.957 121.419 258.465 121.478 258.819 121.326C259.193 121.181 259.508 120.919 259.824 120.704C260.424 120.283 260.982 119.891 261.491 119.533C261.975 119.217 262.251 118.816 262.265 118.492C262.293 118.173 262.157 118.021 262.174 118.016Z" fill="#AD3030"/>
<path d="M264.622 119.177C264.622 119.177 264.816 119.191 265.169 119.194C265.334 119.218 265.594 119.172 265.787 119.404C265.927 119.676 265.742 119.999 265.504 120.202C264.498 120.98 262.958 121.852 261.103 122.415C260.875 122.484 260.618 122.552 260.363 122.479C260.114 122.422 259.887 122.171 259.926 121.898C260.029 121.369 260.492 121.155 260.79 120.888C261.444 120.372 262.067 119.935 262.643 119.661C263.217 119.386 263.725 119.268 264.074 119.218C264.424 119.165 264.622 119.177 264.622 119.177C264.632 119.223 263.818 119.195 262.689 119.756C262.13 120.036 261.522 120.474 260.874 120.995C260.57 121.258 260.135 121.503 260.07 121.912C260.045 122.109 260.198 122.286 260.403 122.338C260.606 122.397 260.836 122.343 261.061 122.274C262.892 121.72 264.436 120.863 265.435 120.125C265.668 119.937 265.817 119.652 265.716 119.447C265.588 119.27 265.325 119.276 265.165 119.252C264.813 119.231 264.619 119.192 264.622 119.177Z" fill="#AD3030"/>
<path d="M236.896 128.776C236.973 128.851 236.512 129.403 236.157 130.192C235.792 130.977 235.676 131.686 235.569 131.678C235.472 131.68 235.426 130.896 235.822 130.039C236.211 129.179 236.834 128.701 236.896 128.776Z" fill="white"/>
<path d="M241.423 137.831C241.437 137.864 241.021 138.074 240.281 138.117C239.547 138.166 238.5 137.968 237.537 137.364C236.576 136.756 235.945 135.897 235.672 135.214C235.392 134.528 235.401 134.061 235.437 134.059C235.501 134.047 235.585 134.486 235.908 135.102C236.225 135.718 236.839 136.484 237.734 137.051C238.632 137.613 239.587 137.837 240.28 137.856C240.975 137.882 241.407 137.768 241.423 137.831Z" fill="white"/>
<path d="M158.218 186.849C169.879 191.64 176.585 190.686 185.964 193.073C196.772 195.824 208.604 193.579 218.856 189.188C223.776 187.081 229.227 184.108 234.137 186.241C235.191 186.699 236.137 187.372 237.178 187.859C238.457 188.458 239.851 188.762 241.227 189.08C244.139 189.756 247.272 190.682 249.007 193.117C250.742 195.552 249.86 199.865 246.9 200.291C248.32 200.643 248.743 202.535 248.338 203.94C247.932 205.346 247.003 206.575 246.73 208.012C246.331 210.119 247.404 212.197 248.442 214.073C253.228 213.758 257.657 218.551 256.967 223.296C256.816 224.327 256.467 225.336 256.48 226.377C256.496 227.572 256.987 228.707 257.142 229.891C257.56 233.102 255.069 236.412 251.868 236.899C252.049 240.527 249.694 244.142 246.302 245.443C247.742 245.821 248.787 247.336 248.63 248.816C248.472 250.296 247.131 251.557 245.645 251.625C248.384 256.279 245.168 263.224 239.847 264.144C239.838 268.141 236.971 271.486 234.269 274.432C232.936 275.884 231.451 277.421 229.505 277.729C226.319 278.232 223.561 275.259 220.345 275.024C218.944 274.921 217.551 275.351 216.147 275.315C214.743 275.279 213.159 274.534 212.921 273.15C212.564 274.861 210.52 275.768 208.793 275.499C207.066 275.23 205.606 274.119 204.227 273.046C207.124 277.307 206.134 283.74 202.09 286.933C198.045 290.126 191.558 289.597 188.085 285.79C187.612 287.494 185.621 288.401 183.859 288.246C182.098 288.091 180.519 287.142 179.011 286.217C178.08 288.508 176.772 291.118 174.337 291.544C173.574 291.677 172.758 291.574 172.053 291.892C170.863 292.429 170.483 293.886 169.987 295.094C168.871 297.813 166.367 300.006 163.457 300.419C160.546 300.833 157.373 299.261 156.222 296.557C155.887 298.579 153.995 300.229 151.946 300.288C149.897 300.346 147.916 298.806 147.465 296.807C145.433 298.465 142.339 297.24 140.351 295.531C136.666 292.363 134.363 287.641 134.135 282.787C133.537 284.586 131.036 285.098 129.34 284.251C127.645 283.402 126.6 281.671 125.699 280.003C125.626 282.868 123.203 285.485 120.353 285.78C117.513 286.073 114.789 284.256 113.186 281.895C111.583 279.534 110.882 276.692 110.211 273.917C109.052 269.127 107.886 264.19 108.631 259.32C109.065 256.483 110.133 253.789 111.192 251.123C112.761 247.177 114.336 243.217 116.432 239.524C121.171 231.172 128.35 224.538 134.781 217.407C141.211 210.275 149.962 200.44 151.304 190.932C151.715 188.022 151.163 185.24 151.477 184.735C152.218 183.543 158.218 186.849 158.218 186.849Z" fill="#65AB44"/>
<path d="M151.479 184.732C151.481 184.726 151.542 184.742 151.659 184.777C151.797 184.822 151.967 184.877 152.178 184.946C152.632 185.099 153.302 185.325 154.157 185.639C155.87 186.255 158.331 187.194 161.35 188.409C167.4 190.806 175.625 194.449 185.026 197.628C189.708 199.261 194.267 200.544 198.52 201.126C202.767 201.729 206.652 201.779 209.885 201.526C213.124 201.298 215.709 200.768 217.477 200.364C218.362 200.16 219.044 199.978 219.504 199.848C219.719 199.793 219.892 199.749 220.032 199.712C220.152 199.684 220.214 199.672 220.216 199.678C220.218 199.685 220.159 199.708 220.044 199.749C219.907 199.794 219.736 199.85 219.526 199.92C219.071 200.073 218.395 200.277 217.512 200.503C215.748 200.951 213.16 201.523 209.907 201.786C206.659 202.074 202.75 202.05 198.473 201.462C194.189 200.896 189.595 199.613 184.905 197.978C175.488 194.792 167.27 191.107 161.251 188.651C158.247 187.405 155.802 186.431 154.106 185.773C153.279 185.453 152.627 185.2 152.153 185.016C151.948 184.933 151.781 184.867 151.647 184.813C151.533 184.765 151.476 184.738 151.479 184.732Z" fill="white"/>
<path d="M214.58 206.496C214.58 206.502 214.522 206.503 214.41 206.499C214.276 206.492 214.114 206.483 213.915 206.472C213.449 206.444 212.814 206.405 212.013 206.356C210.36 206.263 207.967 206.205 205.005 206.116C202.05 206.003 198.499 205.88 194.643 205.068C190.764 204.3 186.798 202.461 182.779 200.419C174.673 196.453 167.337 192.863 161.992 190.247C159.363 188.941 157.224 187.879 155.711 187.128C154.996 186.764 154.428 186.475 154.012 186.263C153.836 186.17 153.692 186.093 153.574 186.03C153.476 185.976 153.428 185.945 153.431 185.939C153.434 185.934 153.488 185.953 153.591 185.996C153.714 186.05 153.862 186.116 154.045 186.197C154.469 186.393 155.046 186.661 155.776 187C157.301 187.725 159.457 188.752 162.109 190.014C167.466 192.605 174.82 196.16 182.944 200.089C186.963 202.131 190.884 203.958 194.715 204.735C198.528 205.557 202.064 205.708 205.015 205.854C207.972 205.977 210.369 206.074 212.021 206.212C212.847 206.279 213.488 206.341 213.921 206.397C214.119 206.423 214.28 206.444 214.414 206.461C214.525 206.478 214.581 206.489 214.58 206.496Z" fill="white"/>
<path d="M225.009 240.84C225.007 240.846 224.929 240.824 224.779 240.775C224.611 240.719 224.392 240.644 224.117 240.551C223.537 240.345 222.672 240.065 221.59 239.623C219.412 238.778 216.291 237.446 212.627 235.423C210.792 234.419 208.829 233.233 206.778 231.875C204.74 230.497 202.609 228.953 200.47 227.198C196.194 223.688 191.885 219.336 187.942 214.32C185.934 211.845 184.006 209.402 181.938 207.234C179.881 205.057 177.721 203.126 175.601 201.366C171.345 197.858 167.253 195.024 163.793 192.694C160.324 190.373 157.467 188.568 155.498 187.312C154.529 186.693 153.769 186.208 153.23 185.865C152.987 185.704 152.793 185.578 152.645 185.481C152.515 185.393 152.449 185.345 152.452 185.339C152.456 185.334 152.527 185.371 152.665 185.449C152.818 185.538 153.017 185.654 153.269 185.801C153.817 186.13 154.588 186.596 155.573 187.189C157.566 188.407 160.446 190.18 163.937 192.475C167.42 194.781 171.534 197.598 175.816 201.103C177.95 202.863 180.125 204.797 182.2 206.986C184.286 209.166 186.222 211.614 188.228 214.088C192.165 219.095 196.437 223.422 200.685 226.935C202.81 228.69 204.925 230.236 206.948 231.621C208.984 232.984 210.931 234.18 212.753 235.194C216.388 237.24 219.485 238.605 221.642 239.49C222.714 239.952 223.569 240.253 224.14 240.481C224.411 240.589 224.625 240.674 224.791 240.74C224.937 240.8 225.011 240.834 225.009 240.84Z" fill="white"/>
<path d="M194.232 260.102C194.226 260.104 194.205 260.028 194.168 259.88C194.13 259.712 194.08 259.495 194.018 259.221C193.888 258.617 193.706 257.765 193.475 256.68C193.002 254.473 192.339 251.275 191.436 247.344C190.522 243.416 189.371 238.749 187.741 233.675C186.946 231.132 185.982 228.506 184.906 225.816C183.778 223.149 182.574 220.396 181.078 217.712C180.729 217.027 180.343 216.369 179.952 215.718C179.56 215.069 179.197 214.409 178.79 213.781C177.964 212.535 177.18 211.285 176.311 210.127C174.598 207.793 172.791 205.655 171.018 203.666C167.466 199.693 164.032 196.328 161.114 193.546C158.188 190.769 155.759 188.587 154.078 187.082C153.251 186.344 152.601 185.764 152.139 185.352C151.932 185.163 151.767 185.013 151.639 184.897C151.528 184.793 151.473 184.738 151.477 184.733C151.481 184.728 151.544 184.774 151.664 184.869C151.797 184.978 151.97 185.118 152.188 185.296C152.647 185.674 153.317 186.238 154.173 186.974C155.884 188.446 158.34 190.601 161.292 193.357C164.237 196.118 167.694 199.468 171.271 203.44C173.056 205.428 174.875 207.569 176.602 209.914C177.479 211.078 178.269 212.333 179.1 213.586C179.51 214.216 179.876 214.88 180.27 215.533C180.663 216.186 181.051 216.848 181.402 217.536C182.906 220.233 184.113 223 185.241 225.679C186.315 228.382 187.276 231.019 188.064 233.572C189.681 238.666 190.808 243.347 191.689 247.286C192.561 251.229 193.185 254.435 193.614 256.652C193.818 257.742 193.977 258.599 194.09 259.207C194.137 259.484 194.175 259.704 194.204 259.873C194.229 260.023 194.239 260.101 194.232 260.102Z" fill="white"/>
<path d="M158.32 276.418C158.314 276.418 158.309 276.336 158.306 276.178C158.304 276.001 158.302 275.768 158.3 275.475C158.306 274.856 158.284 273.942 158.342 272.769C158.409 270.42 158.651 267.023 159.123 262.848C159.573 258.671 160.271 253.716 160.765 248.192C161.003 245.43 161.187 242.524 161.197 239.51C161.207 236.495 160.972 233.381 160.585 230.207C159.804 223.854 158.491 217.885 157.264 212.474C156.013 207.066 154.821 202.208 153.912 198.106C152.999 194.006 152.353 190.666 151.98 188.345C151.78 187.188 151.675 186.281 151.585 185.669C151.547 185.378 151.518 185.147 151.496 184.97C151.478 184.813 151.472 184.732 151.478 184.731C151.484 184.73 151.503 184.81 151.533 184.965C151.565 185.14 151.606 185.369 151.659 185.657C151.772 186.265 151.9 187.167 152.122 188.32C152.538 190.631 153.221 193.958 154.167 198.048C155.145 202.139 156.306 207.001 157.596 212.397C158.842 217.808 160.167 223.785 160.952 230.161C161.341 233.345 161.574 236.48 161.559 239.51C161.544 242.539 161.352 245.454 161.104 248.222C160.59 253.758 159.865 258.707 159.382 262.877C158.877 267.044 158.597 270.43 158.486 272.775C158.406 273.946 158.404 274.857 158.374 275.475C158.362 275.767 158.352 276 158.344 276.178C158.334 276.336 158.326 276.418 158.32 276.418Z" fill="white"/>
<path d="M165.902 263.097C165.876 263.097 165.844 262.71 165.806 262.011C165.773 261.311 165.707 260.3 165.606 259.053C165.408 256.56 164.989 253.127 164.296 249.371C163.601 245.616 162.803 242.248 162.211 239.815C161.927 238.647 161.69 237.677 161.508 236.932C161.345 236.25 161.267 235.869 161.292 235.863C161.316 235.856 161.442 236.224 161.647 236.894C161.854 237.564 162.135 238.54 162.464 239.749C163.121 242.17 163.961 245.536 164.659 249.304C165.354 253.072 165.735 256.527 165.866 259.034C165.934 260.288 165.961 261.304 165.949 262.006C165.943 262.71 165.927 263.097 165.902 263.097Z" fill="white"/>
<path d="M137.862 260.618C137.851 260.612 137.933 260.413 138.1 260.039C138.283 259.638 138.532 259.096 138.845 258.413C139.18 257.713 139.567 256.845 140.003 255.833C140.448 254.823 140.955 253.675 141.47 252.386C142.552 249.83 143.703 246.731 144.941 243.277C146.138 239.808 147.374 235.967 148.547 231.898C149.702 227.822 150.685 223.908 151.515 220.332C152.308 216.749 152.989 213.513 153.462 210.777C153.721 209.413 153.921 208.174 154.096 207.085C154.281 205.997 154.429 205.06 154.536 204.29C154.649 203.547 154.74 202.958 154.806 202.522C154.872 202.118 154.913 201.907 154.926 201.908C154.938 201.91 154.922 202.124 154.88 202.531C154.831 202.97 154.763 203.562 154.678 204.309C154.593 205.082 154.466 206.024 154.3 207.116C154.144 208.208 153.962 209.453 153.719 210.821C153.278 213.566 152.624 216.813 151.847 220.406C151.035 223.991 150.06 227.915 148.902 231.998C147.727 236.074 146.479 239.92 145.262 243.389C144.005 246.843 142.825 249.938 141.711 252.486C141.18 253.771 140.655 254.914 140.192 255.916C139.738 256.923 139.331 257.782 138.975 258.474C138.636 259.144 138.366 259.677 138.167 260.071C137.979 260.436 137.874 260.623 137.862 260.618Z" fill="white"/>
<path d="M116.221 280.583C116.204 280.6 115.92 280.32 115.418 279.793C115.295 279.659 115.147 279.519 115.008 279.347C114.874 279.167 114.73 278.974 114.578 278.77C114.423 278.559 114.258 278.337 114.086 278.103C113.928 277.856 113.778 277.585 113.611 277.305C112.923 276.196 112.33 274.751 111.803 273.114C111.302 271.465 110.97 269.594 110.803 267.617C110.497 263.648 111.055 260.05 111.737 257.551C111.885 256.918 112.088 256.365 112.25 255.876C112.404 255.384 112.566 254.971 112.717 254.64C113.002 253.973 113.17 253.61 113.193 253.62C113.217 253.63 113.093 254.012 112.851 254.691C112.722 255.028 112.581 255.445 112.446 255.94C112.304 256.432 112.12 256.984 111.99 257.616C111.378 260.11 110.868 263.67 111.171 267.589C111.336 269.541 111.653 271.388 112.129 273.018C112.63 274.636 113.188 276.069 113.838 277.177C115.085 279.427 116.296 280.519 116.221 280.583Z" fill="white"/>
<path d="M128.989 282.059C128.916 282.121 128.098 281.224 127.454 279.886C126.804 278.551 126.609 277.353 126.703 277.334C126.808 277.308 127.155 278.432 127.787 279.726C128.409 281.022 129.075 281.993 128.989 282.059Z" fill="white"/>
<path d="M141.694 293.187C141.681 293.209 141.501 293.118 141.182 292.933C140.861 292.755 140.425 292.447 139.92 292.024C139.411 291.606 138.861 291.041 138.311 290.364C137.776 289.676 137.25 288.867 136.81 287.959C136.382 287.046 136.085 286.128 135.888 285.278C135.708 284.424 135.616 283.641 135.612 282.982C135.602 282.325 135.637 281.792 135.701 281.43C135.758 281.067 135.801 280.87 135.827 280.873C135.895 280.881 135.787 281.684 135.873 282.971C135.91 283.614 136.026 284.374 136.219 285.201C136.429 286.024 136.727 286.912 137.144 287.801C137.571 288.683 138.073 289.474 138.579 290.156C139.1 290.827 139.617 291.395 140.093 291.829C141.039 292.706 141.731 293.128 141.694 293.187Z" fill="white"/>
<path d="M161.313 298.082C161.297 298.176 159.981 297.688 159.049 296.318C158.1 294.958 158.113 293.555 158.206 293.573C158.317 293.554 158.465 294.844 159.353 296.108C160.217 297.386 161.37 297.985 161.313 298.082Z" fill="white"/>
<path d="M183.315 286.037C183.294 286.072 182.834 285.853 182.218 285.316C181.601 284.785 180.86 283.9 180.337 282.761C179.818 281.618 179.635 280.479 179.637 279.665C179.636 278.847 179.771 278.357 179.81 278.364C179.871 278.371 179.83 278.866 179.897 279.653C179.961 280.438 180.176 281.515 180.672 282.607C181.173 283.697 181.846 284.565 182.397 285.128C182.948 285.692 183.35 285.987 183.315 286.037Z" fill="white"/>
<path d="M192.295 286.585C192.278 286.604 192.125 286.497 191.861 286.282C191.592 286.074 191.239 285.726 190.843 285.262C190.442 284.801 190.03 284.198 189.641 283.488C189.268 282.771 188.928 281.944 188.689 281.04C188.462 280.132 188.362 279.243 188.344 278.435C188.343 277.625 188.413 276.897 188.543 276.301C188.666 275.704 188.808 275.229 188.943 274.917C189.072 274.602 189.154 274.434 189.177 274.443C189.242 274.466 188.976 275.168 188.799 276.346C188.705 276.934 188.665 277.643 188.683 278.428C188.719 279.211 188.826 280.07 189.046 280.949C189.277 281.825 189.597 282.629 189.943 283.332C190.303 284.028 190.681 284.63 191.047 285.1C191.77 286.047 192.34 286.534 192.295 286.585Z" fill="white"/>
<path opacity="0.3" d="M124.481 236.536C127.346 237.479 130.453 237.466 133.331 238.369C136.209 239.272 139.046 241.573 139.046 244.589C139.046 246.353 138.103 248.278 139.04 249.773C141.143 246.852 142.338 243.288 142.422 239.69C144.877 240.744 147.332 241.798 149.787 242.852C151.3 243.501 152.877 244.198 153.9 245.488C157.278 249.747 152.426 256.768 155.496 261.254C156.726 257.579 157.428 253.728 157.573 249.856C161.683 252.839 158.165 260.909 162.431 263.665C162.336 260.137 162.114 256.614 161.766 253.102C166.605 257.804 171.755 262.186 177.17 266.211C178.559 267.244 180.056 268.288 181.779 268.456C185.865 268.854 188.587 264.463 190.269 260.719C191.052 261.762 191.835 262.804 192.619 263.845C194.38 261.909 193.034 258.787 193.638 256.24C194.145 254.1 195.981 252.575 197.709 251.214C203.88 246.351 211.026 241.206 218.802 242.328C217.123 241.681 216.93 239.193 217.963 237.72C218.997 236.247 220.759 235.51 222.378 234.723C230.435 230.8 236.851 223.936 241.126 216.06C245.402 208.185 246.477 195.886 242.387 189.364L242.384 189.363C242.381 189.363 242.291 189.357 242.136 189.349V189.301C241.833 189.224 241.53 189.15 241.229 189.08C239.853 188.761 238.459 188.458 237.18 187.859C236.14 187.372 235.193 186.698 234.139 186.24C229.229 184.108 223.779 187.08 218.858 189.187C208.607 193.579 196.774 195.823 185.966 193.073C176.588 190.686 169.881 191.639 158.22 186.849C158.22 186.849 152.22 183.542 151.48 184.732C151.166 185.237 151.717 188.02 151.307 190.929C149.964 200.437 141.213 210.272 134.784 217.404C130.537 222.114 125.967 226.61 121.985 231.524C121.933 233.817 122.198 235.784 124.481 236.536Z" fill="black"/>
<path d="M85.9084 231.952C82.6045 226.467 76.9307 223.987 70.5376 223.631C68.751 223.531 66.8935 223.692 65.3167 224.537C63.7398 225.382 62.5017 227.025 62.5379 228.813C62.5754 230.688 63.9886 232.319 65.6696 233.148C70.7686 235.662 77.122 231.963 82.4854 233.85C83.3018 234.137 84.1558 234.557 84.9914 234.33C85.8255 234.103 86.2131 233.207 85.9084 231.952Z" fill="#FFEA7C"/>
<path d="M71.2014 232.744C71.2085 232.784 70.5657 232.956 69.4921 232.946C68.4418 232.931 66.8713 232.667 65.5737 231.584C64.9345 231.05 64.4511 230.385 64.1946 229.704C63.9345 229.023 63.8877 228.356 63.9487 227.815C64.0139 227.272 64.1783 226.855 64.3271 226.594C64.4759 226.33 64.5971 226.213 64.6134 226.224C64.6765 226.254 64.2662 226.807 64.2088 227.837C64.184 228.344 64.2548 228.959 64.5107 229.578C64.7622 230.196 65.2144 230.803 65.8097 231.3C67.0166 232.309 68.4829 232.604 69.5048 232.685C70.543 232.762 71.1958 232.684 71.2014 232.744Z" fill="white"/>
<path d="M74.6478 232.482C74.645 232.584 74.3183 232.658 73.9186 232.647C73.5189 232.637 73.1964 232.546 73.1992 232.444C73.2021 232.342 73.5281 232.268 73.9285 232.279C74.3289 232.289 74.6506 232.38 74.6478 232.482Z" fill="white"/>
<path d="M67.8507 211.037C67.2497 210.653 66.4751 210.496 65.6934 210.567C64.8239 210.477 63.904 210.889 63.371 211.598C62.7233 212.461 62.6184 213.66 62.9657 214.681C63.3129 215.703 64.0684 216.551 64.9614 217.156C65.9826 217.849 67.3489 218.242 68.4474 217.681C69.4871 217.15 69.9909 215.892 69.952 214.725C69.9038 213.254 69.0916 211.829 67.8507 211.037Z" fill="#FFEA7C"/>
<path d="M65.4448 216.587C65.4257 216.627 65.1153 216.542 64.6978 216.24C64.2833 215.944 63.7773 215.402 63.4824 214.661C63.1869 213.92 63.182 213.179 63.279 212.678C63.3747 212.172 63.5413 211.896 63.5831 211.913C63.6915 211.929 63.2762 213.156 63.8254 214.524C64.3669 215.896 65.5121 216.501 65.4448 216.587Z" fill="white"/>
<path d="M254.62 167.449C259.197 159.851 267.055 156.417 275.91 155.923C278.384 155.785 280.958 156.008 283.142 157.179C285.326 158.349 287.041 160.624 286.992 163.102C286.939 165.699 284.982 167.957 282.654 169.106C275.591 172.589 266.79 167.465 259.362 170.078C258.231 170.477 257.048 171.058 255.891 170.743C254.734 170.428 254.198 169.188 254.62 167.449Z" fill="#FFEA7C"/>
<path d="M274.991 168.547C274.997 168.483 275.899 168.609 277.343 168.517C278.764 168.417 280.815 168.015 282.504 166.603C283.338 165.907 283.97 165.055 284.319 164.187C284.674 163.319 284.768 162.457 284.727 161.747C284.632 160.307 284.043 159.547 284.116 159.518C284.131 159.507 284.29 159.676 284.487 160.042C284.685 160.406 284.903 160.98 284.986 161.726C285.064 162.468 284.994 163.383 284.634 164.313C284.28 165.245 283.617 166.154 282.739 166.887C280.959 168.373 278.805 168.744 277.355 168.777C276.617 168.794 276.022 168.741 275.616 168.684C275.209 168.627 274.988 168.57 274.991 168.547Z" fill="white"/>
<path d="M270.218 168.183C270.215 168.081 270.662 167.987 271.216 167.972C271.771 167.957 272.221 168.028 272.224 168.13C272.227 168.232 271.78 168.326 271.226 168.341C270.672 168.355 270.221 168.284 270.218 168.183Z" fill="white"/>
<path d="M279.202 209.581C279.995 210.169 280.58 211.094 280.873 212.142C281.418 213.223 281.338 214.617 280.683 215.656C279.885 216.92 278.384 217.647 276.892 217.701C275.399 217.755 273.928 217.195 272.704 216.338C271.305 215.358 270.122 213.783 270.306 212.084C270.48 210.476 271.861 209.204 273.39 208.679C275.319 208.017 277.564 208.365 279.202 209.581Z" fill="#FFEA7C"/>
<path d="M273.203 215.431C273.242 215.386 273.573 215.655 274.172 215.955C274.766 216.257 275.656 216.566 276.67 216.582C277.683 216.597 278.582 216.316 279.186 216.032C279.794 215.749 280.134 215.491 280.17 215.537C280.199 215.568 279.914 215.905 279.306 216.263C278.706 216.621 277.754 216.967 276.664 216.951C275.574 216.935 274.633 216.559 274.045 216.183C273.448 215.806 273.173 215.461 273.203 215.431Z" fill="white"/>
<path d="M208.087 194.988C198.046 193.87 189.089 188.469 179.81 184.474C170.531 180.478 157.938 177.144 148.898 181.654C143.866 188.771 140.81 194.567 132.87 203.01C131.461 204.788 129.374 205.021 127.722 206.595L128.549 208.15C130.296 208.803 131.868 210.094 132.532 211.837C133.419 214.163 132.483 216.944 130.613 218.586C128.743 220.229 126.111 220.825 123.633 220.59C121.608 220.398 119.604 219.667 118.072 218.33C117.49 217.822 116.984 217.221 116.58 216.562C111.388 219.457 104.538 220.37 98.8672 221.768L99.4058 223.205C117.849 234.201 142.391 233.123 158.818 246.952C166.836 253.702 172.908 263.933 183.152 266.155C192.743 253.148 204.502 241.744 217.796 232.555C222.88 229.04 228.263 225.781 232.317 221.116C240.747 211.418 241.957 197.582 242.674 184.753L242.135 183.316C231.806 189.594 220.082 196.323 208.087 194.988ZM190.372 245.585C188.183 247.509 185.103 248.206 182.202 247.931C179.832 247.706 177.486 246.85 175.692 245.285C173.899 243.719 172.709 241.408 172.731 239.029C172.753 236.785 173.88 234.579 175.685 233.247C176.703 232.497 178.487 231.895 180.235 231.628C181.941 231.367 183.688 231.626 185.286 232.279L187.955 233.371C190.001 234.134 191.84 235.646 192.618 237.686C193.656 240.408 192.561 243.662 190.372 245.585ZM201.152 219.043C199.973 220.078 198.314 220.454 196.752 220.306C195.475 220.185 194.212 219.724 193.246 218.881C192.28 218.038 191.639 216.793 191.651 215.511C191.663 214.303 192.27 213.115 193.242 212.397C193.79 211.993 194.751 211.669 195.692 211.525C196.611 211.385 197.552 211.524 198.412 211.876L199.85 212.464C200.951 212.875 201.943 213.689 202.361 214.788C202.921 216.254 202.331 218.007 201.152 219.043Z" fill="#FFCF54"/>
<g opacity="0.3">
<path d="M208.087 194.988C198.046 193.87 189.089 188.469 179.81 184.474C170.531 180.478 157.938 177.144 148.898 181.654C143.866 188.771 140.81 194.567 132.87 203.01C131.461 204.788 129.374 205.021 127.722 206.595L128.549 208.15C130.296 208.803 131.868 210.094 132.532 211.837C133.419 214.163 132.483 216.944 130.613 218.586C128.743 220.229 126.111 220.825 123.633 220.59C121.608 220.398 119.604 219.667 118.072 218.33C117.49 217.822 116.984 217.221 116.58 216.562C111.449 219.423 104.47 220.369 98.8672 221.768L99.4058 223.205C117.849 234.201 142.391 233.123 158.818 246.952C166.836 253.702 172.908 263.933 183.152 266.155C192.743 253.148 204.502 241.744 217.796 232.555C222.88 229.04 228.263 225.781 232.317 221.116C240.747 211.418 241.957 197.582 242.674 184.753L242.135 183.316C231.789 189.614 220.109 196.326 208.087 194.988ZM190.372 245.585C188.183 247.509 185.103 248.206 182.202 247.931C179.832 247.706 177.486 246.85 175.692 245.285C173.899 243.719 172.709 241.408 172.731 239.029C172.753 236.785 173.88 234.579 175.685 233.247C176.703 232.497 178.487 231.895 180.235 231.628C181.941 231.367 183.688 231.626 185.286 232.279L187.955 233.371C190.001 234.134 191.84 235.646 192.618 237.686C193.656 240.408 192.561 243.662 190.372 245.585ZM201.152 219.043C199.973 220.078 198.314 220.454 196.752 220.306C195.475 220.185 194.212 219.724 193.246 218.881C192.28 218.038 191.639 216.793 191.651 215.511C191.663 214.303 192.27 213.115 193.242 212.397C193.79 211.993 194.751 211.669 195.692 211.525C196.611 211.385 197.552 211.524 198.412 211.876L199.85 212.464C200.951 212.875 201.943 213.689 202.361 214.788C202.921 216.254 202.331 218.007 201.152 219.043Z" fill="black"/>
</g>
<path d="M207.549 193.552C197.508 192.434 188.55 187.033 179.271 183.038C169.992 179.042 157.399 175.708 148.359 180.218C143.327 187.335 140.271 193.131 132.331 201.574C130.922 203.351 129.374 205.022 127.722 206.596L128.01 206.713C129.757 207.366 131.33 208.657 131.994 210.4C132.88 212.726 131.945 215.506 130.074 217.15C128.204 218.792 125.573 219.388 123.095 219.153C121.07 218.961 119.066 218.23 117.533 216.893C116.952 216.385 116.446 215.785 116.041 215.125C110.636 218.14 104.776 220.38 98.8672 221.769C117.31 232.765 141.853 231.687 158.279 245.516C166.297 252.266 172.37 262.497 182.613 264.718C192.205 251.713 203.963 240.308 217.257 231.119C222.341 227.604 227.724 224.345 231.779 219.68C240.208 209.982 241.418 196.146 242.135 183.316C231.696 189.727 219.724 194.907 207.549 193.552ZM189.833 244.149C187.644 246.073 184.564 246.769 181.663 246.494C179.293 246.27 176.947 245.414 175.154 243.849C173.36 242.283 172.17 239.972 172.193 237.593C172.214 235.349 173.341 233.143 175.147 231.811C176.164 231.061 177.948 230.459 179.696 230.192C181.403 229.931 183.149 230.19 184.747 230.843L187.417 231.935C189.462 232.698 191.302 234.21 192.079 236.25C193.118 238.972 192.023 242.226 189.833 244.149ZM200.613 217.606C199.434 218.642 197.775 219.017 196.213 218.869C194.937 218.748 193.673 218.287 192.707 217.444C191.741 216.601 191.101 215.357 191.113 214.075C191.124 212.866 191.731 211.678 192.704 210.961C193.251 210.556 194.212 210.232 195.154 210.088C196.073 209.948 197.013 210.087 197.874 210.439L199.311 211.027C200.413 211.438 201.404 212.253 201.822 213.351C202.382 214.817 201.793 216.571 200.613 217.606Z" fill="#FFCF54"/>
<path d="M163.527 244.97C163.517 244.979 163.37 244.837 163.099 244.56C162.82 244.293 162.452 243.855 161.909 243.36C160.854 242.342 159.227 240.965 157.023 239.544C154.819 238.129 152.035 236.684 148.801 235.43C145.576 234.148 141.925 233.021 138.068 231.921C130.362 229.723 123.388 227.734 118.299 226.282C115.8 225.551 113.767 224.957 112.319 224.534C111.641 224.327 111.101 224.163 110.698 224.04C110.329 223.923 110.136 223.857 110.14 223.844C110.143 223.831 110.342 223.875 110.718 223.969C111.125 224.075 111.671 224.217 112.357 224.395C113.812 224.791 115.857 225.348 118.369 226.031C123.466 227.456 130.451 229.409 138.168 231.566C142.029 232.666 145.691 233.807 148.926 235.114C152.17 236.392 154.962 237.872 157.164 239.325C159.366 240.784 160.979 242.202 162.008 243.257C162.538 243.77 162.89 244.225 163.153 244.51C163.408 244.804 163.537 244.962 163.527 244.97Z" fill="white"/>
<path d="M169.587 251.999C169.5 252.061 168.952 251.418 168.176 250.744C167.405 250.065 166.696 249.608 166.746 249.513C166.787 249.426 167.609 249.754 168.419 250.467C169.233 251.175 169.668 251.946 169.587 251.999Z" fill="white"/>
<path d="M170.976 233.163C171.089 233.209 169.961 235.219 169.747 237.978C169.496 240.735 170.272 242.907 170.152 242.933C170.112 242.948 169.865 242.43 169.644 241.534C169.421 240.64 169.262 239.357 169.379 237.947C169.501 236.538 169.872 235.3 170.241 234.456C170.609 233.61 170.94 233.142 170.976 233.163Z" fill="white"/>
<path d="M188.229 214.007C188.326 214.059 187.877 214.937 187.787 216.115C187.68 217.292 187.975 218.233 187.87 218.268C187.789 218.315 187.306 217.358 187.42 216.084C187.521 214.809 188.157 213.946 188.229 214.007Z" fill="white"/>
<path d="M227.913 171.744C228.564 168.325 225.266 154.881 221.214 152.911C211.725 148.297 193.413 158.084 175.584 160.533C154.641 163.411 135.756 171.515 126.677 176.971C122.757 179.326 110.765 179.905 108.336 182.634C108.336 182.634 108.357 189.612 110.899 196.523C110.899 196.523 113.08 207.039 124.201 209.697C140.09 213.495 159.328 211.949 172.855 208.846C188.405 205.279 209.629 195.909 217.359 189.667C225.09 183.426 227.012 176.472 227.913 171.744Z" fill="#743C35"/>
<path d="M223.962 157.571C219.785 144.906 197.822 143.289 172.379 146.785C151.437 149.662 132.551 157.767 123.472 163.222C114.393 168.678 109.25 175.11 108.337 182.635C108.337 182.635 109.875 193.29 120.997 195.949C136.885 199.747 156.72 198.806 170.248 195.704C185.797 192.137 206.424 182.16 214.155 175.919C221.885 169.677 225.092 160.997 223.962 157.571Z" fill="#A85F4C"/>
<path d="M171.292 151.039C171.756 151.25 168.264 159.928 163.493 170.42C158.721 180.916 154.478 189.25 154.014 189.039C153.55 188.827 157.041 180.152 161.813 169.656C166.584 159.164 170.828 150.828 171.292 151.039Z" fill="#774037"/>
<path d="M190.209 148.015C190.672 148.229 187.29 156.514 182.657 166.517C178.022 176.524 173.891 184.459 173.429 184.245C172.967 184.031 176.348 175.748 180.983 165.741C185.616 155.738 189.747 147.801 190.209 148.015Z" fill="#774037"/>
<path d="M207.612 150.013C208.077 150.194 205.927 156.777 202.307 164.491C198.698 172.214 195.018 178.078 194.581 177.837C194.125 177.588 197.055 171.373 200.636 163.709C204.229 156.053 207.129 149.821 207.612 150.013Z" fill="#774037"/>
<path d="M148.43 156.975C148.899 157.141 146.503 165.032 142.504 174.364C138.516 183.705 134.464 190.886 134.02 190.661C133.553 190.429 136.844 182.923 140.807 173.638C144.783 164.363 147.94 156.798 148.43 156.975Z" fill="#774037"/>
<path d="M130.265 165.604C130.72 165.854 128.83 170.115 126.489 175.333C124.135 180.547 122.2 184.786 121.71 184.611C121.238 184.447 122.417 179.868 124.805 174.575C127.184 169.279 129.829 165.359 130.265 165.604Z" fill="#774037"/>
<path d="M139.709 195.702C139.708 195.715 139.577 195.718 139.329 195.714C139.039 195.704 138.681 195.691 138.245 195.676C137.304 195.633 135.943 195.559 134.263 195.41C132.585 195.261 130.585 195.031 128.395 194.581C126.208 194.134 123.829 193.436 121.491 192.32C119.159 191.182 117.166 189.664 115.628 188.028C114.1 186.381 113.005 184.642 112.383 183.06C111.753 181.482 111.507 180.111 111.467 179.166C111.413 178.695 111.462 178.325 111.457 178.077C111.466 177.828 111.476 177.699 111.489 177.699C111.527 177.699 111.517 178.223 111.609 179.153C111.692 180.083 111.974 181.422 112.624 182.958C113.264 184.498 114.361 186.189 115.875 187.793C117.398 189.387 119.362 190.87 121.652 191.986C123.954 193.085 126.301 193.785 128.466 194.246C130.633 194.711 132.619 194.967 134.289 195.149C135.96 195.33 137.316 195.444 138.254 195.531C138.688 195.574 139.045 195.609 139.333 195.638C139.581 195.669 139.71 195.689 139.709 195.702Z" fill="white"/>
<path d="M150.822 193.817C150.843 193.917 149.465 194.283 147.745 194.634C146.024 194.985 144.613 195.189 144.593 195.089C144.572 194.989 145.95 194.623 147.671 194.272C149.391 193.922 150.802 193.717 150.822 193.817Z" fill="white"/>
<path d="M123.769 206.387C123.761 206.411 123.532 206.352 123.12 206.224C122.707 206.103 122.127 205.873 121.43 205.545C120.037 204.893 118.213 203.731 116.554 202.048C114.902 200.359 113.774 198.513 113.147 197.108C112.831 196.406 112.613 195.821 112.499 195.406C112.379 194.992 112.324 194.762 112.348 194.754C112.412 194.733 112.7 195.637 113.382 196.994C114.06 198.351 115.198 200.133 116.817 201.789C118.442 203.439 120.203 204.609 121.547 205.312C122.892 206.019 123.791 206.323 123.769 206.387Z" fill="white"/>
<path d="M126.569 101.394C126.569 101.394 113.319 98.5065 104.318 103.227C98.5919 106.231 95.6261 113.787 94.3122 121.686C92.1769 134.528 99.9788 154.071 133.389 167.595C169.183 182.086 186.225 172.441 192.12 168.681C197.268 165.398 205.268 156.12 204.787 140.762C204.705 138.134 200.098 138.363 198.39 135.447C189.03 119.465 154.716 99.8516 126.569 101.394Z" fill="#F74545"/>
<path opacity="0.3" d="M126.569 101.394C126.569 101.394 113.319 98.5065 104.318 103.227C98.5919 106.231 95.6261 113.787 94.3122 121.686C92.1769 134.528 99.9788 154.071 133.389 167.595C169.183 182.086 186.225 172.441 192.12 168.681C197.268 165.398 205.268 156.12 204.787 140.762C204.705 138.134 200.098 138.363 198.39 135.447C189.03 119.465 154.716 99.8516 126.569 101.394Z" fill="black"/>
<path d="M128.97 94.3634C128.97 94.3634 100.918 96.4384 97.1848 114.477C94.5463 127.226 102.379 147.04 135.789 160.565C171.583 175.056 192.509 162.062 195.504 159.733C198.498 157.404 211.125 146.065 200.791 128.417C191.431 112.434 157.117 92.8213 128.97 94.3634Z" fill="#F74545"/>
<path opacity="0.1" d="M128.97 94.3634C128.97 94.3634 100.918 96.4384 97.1848 114.477C94.5463 127.226 102.379 147.04 135.789 160.565C171.583 175.056 192.509 162.062 195.504 159.733C198.498 157.404 211.125 146.065 200.791 128.417C191.431 112.434 157.117 92.8213 128.97 94.3634Z" fill="white"/>
<g opacity="0.2">
<path d="M192.025 129.706C189.5 126.67 176.895 129.212 172.14 128.339C171.009 128.131 170.264 126.524 171.211 125.872C178.846 120.62 179.423 114.768 175.465 111.873C171.178 108.737 164.366 105.037 158.338 104.154C154.833 103.641 149.573 103.006 146.885 105.314C145.094 106.852 144.882 114.246 145.096 116.684C144.464 114.579 142.74 107.854 141.601 105.979C139.668 102.794 136.569 100.119 132.884 99.5692C129.013 98.9924 125.186 100.795 121.926 102.961C116.387 106.641 111.649 111.522 108.151 117.18C107.138 118.818 106.427 120.645 106.23 122.561C105.459 130.098 112.473 132.881 118.384 132.61C122.929 132.401 130.88 129.073 135.428 129.181C135.801 129.19 136.197 129.218 136.494 129.441C137.029 129.844 136.973 130.716 136.556 131.241C136.14 131.765 131.976 133.857 131.353 134.1C128.724 135.122 126.029 136.218 124.248 138.532C123.415 139.615 122.88 140.929 122.892 142.296C122.926 145.901 126.318 147.782 129.327 149.183C134.196 151.449 139.085 153.674 143.993 155.855C149.851 158.459 155.893 161.04 162.294 161.386C164.553 161.509 167.112 161.238 168.13 158.71C168.378 158.094 168.473 157.418 168.434 156.756C168.299 154.479 166.925 152.663 165.439 151.068C164.484 150.042 163.521 148.462 163.067 147.135C162.612 145.809 162.508 141.884 163.802 141.345C164.98 140.855 167.116 141.174 168.743 143.335C170.584 145.782 172.397 149.049 174.045 151.629C174.97 153.076 175.791 154.681 177.221 155.633C179.749 157.317 183.199 156.343 185.806 154.783C190.004 152.271 193.387 148.268 194.712 143.558C196.039 138.848 195.152 133.469 192.025 129.706Z" fill="white"/>
</g>
<path d="M134.065 140.901C133.517 140.748 132.925 140.702 132.382 140.872C131.838 141.041 131.352 141.447 131.177 141.989C131.002 142.531 131.194 143.195 131.682 143.489C132.161 143.778 132.774 143.67 133.31 143.51C133.88 143.34 134.434 143.12 134.966 142.855C135.207 142.734 135.401 142.65 135.649 142.44C135.964 142.161 136.004 141.778 135.636 141.565C135.126 141.31 134.614 141.054 134.065 140.901Z" fill="white"/>
<path d="M178.733 148.784C178.509 149.307 178.385 149.889 178.481 150.45C178.578 151.011 178.916 151.547 179.429 151.791C179.943 152.037 180.627 151.933 180.983 151.49C181.333 151.053 181.308 150.431 181.22 149.879C181.126 149.292 180.982 148.713 180.789 148.15C180.702 147.896 180.644 147.692 180.468 147.418C180.233 147.069 179.86 146.979 179.599 147.315C179.279 147.787 178.957 148.261 178.733 148.784Z" fill="white"/>
<path d="M137.463 147.103C137.073 147.476 136.744 147.935 136.604 148.456C136.463 148.976 136.533 149.562 136.862 149.958C137.19 150.354 137.795 150.51 138.263 150.252C138.723 149.999 138.944 149.451 139.088 148.941C139.241 148.399 139.348 147.846 139.409 147.289C139.436 147.038 139.468 146.841 139.43 146.54C139.372 146.154 139.099 145.942 138.752 146.14C138.304 146.434 137.852 146.73 137.463 147.103Z" fill="white"/>
<path d="M153.109 152.983C153.134 153.522 153.264 154.071 153.564 154.519C153.864 154.967 154.352 155.299 154.866 155.312C155.381 155.324 155.895 154.971 156.009 154.449C156.121 153.937 155.854 153.409 155.564 152.965C155.255 152.494 154.909 152.05 154.529 151.639C154.357 151.452 154.23 151.299 153.978 151.13C153.649 150.92 153.31 150.987 153.231 151.378C153.158 151.909 153.085 152.444 153.109 152.983Z" fill="white"/>
<path d="M158.732 150.906C159.144 151.253 159.636 151.531 160.169 151.615C160.701 151.698 161.276 151.566 161.634 151.196C161.993 150.827 162.082 150.209 161.777 149.772C161.476 149.342 160.907 149.18 160.384 149.092C159.829 148.999 159.267 148.952 158.708 148.951C158.454 148.951 158.255 148.94 157.961 149.01C157.583 149.109 157.401 149.404 157.636 149.727C157.976 150.141 158.318 150.558 158.732 150.906Z" fill="white"/>
<path d="M184.618 145.883C184.643 146.423 184.773 146.972 185.073 147.42C185.373 147.868 185.861 148.199 186.375 148.212C186.89 148.225 187.404 147.871 187.518 147.35C187.63 146.837 187.363 146.309 187.072 145.866C186.764 145.394 186.418 144.95 186.038 144.539C185.866 144.353 185.739 144.199 185.487 144.031C185.158 143.82 184.819 143.888 184.74 144.279C184.666 144.81 184.593 145.345 184.618 145.883Z" fill="white"/>
<path d="M188.3 141.591C188.713 141.938 189.205 142.216 189.737 142.3C190.27 142.383 190.844 142.251 191.203 141.882C191.562 141.512 191.651 140.894 191.346 140.457C191.045 140.027 190.476 139.865 189.953 139.777C189.397 139.684 188.836 139.637 188.276 139.636C188.022 139.636 187.824 139.625 187.529 139.695C187.151 139.794 186.97 140.089 187.204 140.412C187.545 140.826 187.888 141.244 188.3 141.591Z" fill="white"/>
<path d="M190.001 135.839C190.474 135.975 190.986 136.023 191.461 135.894C191.935 135.766 192.364 135.442 192.526 135.001C192.686 134.561 192.531 134.013 192.114 133.763C191.704 133.517 191.17 133.593 190.703 133.714C190.206 133.843 189.721 134.013 189.256 134.22C189.045 134.315 188.875 134.379 188.656 134.548C188.378 134.771 188.337 135.084 188.653 135.265C189.088 135.484 189.529 135.704 190.001 135.839Z" fill="white"/>
<path d="M173.731 117.174C174.166 117.065 174.593 116.868 174.909 116.549C175.225 116.231 175.415 115.778 175.341 115.357C175.266 114.935 174.893 114.574 174.448 114.567C174.012 114.56 173.626 114.865 173.312 115.175C172.978 115.505 172.672 115.861 172.4 116.238C172.277 116.409 172.173 116.538 172.076 116.771C171.96 117.075 172.07 117.34 172.402 117.34C172.847 117.311 173.295 117.283 173.731 117.174Z" fill="white"/>
<path d="M132.989 104.61C133.016 104.161 132.957 103.695 132.748 103.298C132.539 102.901 132.164 102.583 131.74 102.527C131.315 102.471 130.858 102.719 130.718 103.14C130.581 103.555 130.755 104.015 130.956 104.408C131.17 104.825 131.418 105.223 131.695 105.597C131.821 105.766 131.913 105.904 132.106 106.066C132.361 106.269 132.647 106.243 132.746 105.926C132.853 105.494 132.962 105.058 132.989 104.61Z" fill="white"/>
<path d="M117.184 111.947C116.974 111.55 116.682 111.181 116.297 110.95C115.913 110.719 115.428 110.642 115.036 110.814C114.644 110.987 114.382 111.436 114.481 111.869C114.579 112.295 114.966 112.597 115.342 112.828C115.741 113.074 116.16 113.286 116.591 113.461C116.786 113.541 116.936 113.611 117.185 113.649C117.508 113.691 117.74 113.52 117.66 113.198C117.528 112.772 117.394 112.344 117.184 111.947Z" fill="white"/>
<path d="M124.815 106.327C124.663 105.842 124.411 105.373 124.031 105.038C123.65 104.703 123.126 104.518 122.654 104.63C122.183 104.743 121.799 105.189 121.821 105.691C121.843 106.185 122.214 106.601 122.585 106.935C122.98 107.289 123.402 107.611 123.847 107.894C124.049 108.022 124.202 108.131 124.471 108.224C124.822 108.336 125.115 108.194 125.091 107.818C125.03 107.316 124.969 106.812 124.815 106.327Z" fill="white"/>
<path d="M111.357 120.405C110.866 120.273 110.336 120.233 109.848 120.375C109.36 120.516 108.923 120.859 108.764 121.317C108.606 121.776 108.776 122.338 109.212 122.589C109.64 122.836 110.19 122.747 110.671 122.613C111.182 122.47 111.68 122.286 112.157 122.063C112.373 121.961 112.548 121.891 112.771 121.714C113.054 121.479 113.091 121.155 112.762 120.973C112.307 120.756 111.848 120.537 111.357 120.405Z" fill="white"/>
<path d="M115.647 127.112C115.151 127.224 114.663 127.436 114.297 127.788C113.931 128.14 113.704 128.647 113.778 129.127C113.851 129.606 114.264 130.025 114.766 130.044C115.26 130.062 115.705 129.728 116.069 129.385C116.455 129.021 116.809 128.626 117.128 128.206C117.273 128.016 117.394 127.873 117.509 127.611C117.65 127.271 117.531 126.968 117.155 126.959C116.651 126.979 116.142 127 115.647 127.112Z" fill="white"/>
<path d="M169.25 113.253C169.681 112.963 170.068 112.584 170.288 112.114C170.507 111.644 170.538 111.078 170.292 110.648C170.047 110.219 169.499 109.971 169.014 110.137C168.536 110.3 168.235 110.783 168.015 111.242C167.781 111.73 167.587 112.236 167.438 112.754C167.37 112.988 167.307 113.169 167.293 113.46C167.284 113.835 167.508 114.081 167.869 113.951C168.343 113.747 168.819 113.542 169.25 113.253Z" fill="white"/>
<path d="M155.603 108.315C155.777 107.826 155.862 107.289 155.758 106.782C155.653 106.275 155.34 105.801 154.887 105.603C154.434 105.404 153.847 105.532 153.556 105.955C153.271 106.371 153.316 106.938 153.413 107.438C153.516 107.969 153.663 108.491 153.851 108.995C153.936 109.223 153.994 109.406 154.156 109.648C154.373 109.955 154.699 110.019 154.911 109.699C155.169 109.252 155.429 108.804 155.603 108.315Z" fill="white"/>
<path d="M163.589 110.161C163.869 109.724 164.074 109.221 164.088 108.703C164.102 108.185 163.904 107.653 163.508 107.356C163.112 107.06 162.511 107.051 162.132 107.397C161.759 107.737 161.675 108.299 161.656 108.809C161.635 109.35 161.659 109.891 161.728 110.425C161.759 110.667 161.773 110.858 161.877 111.13C162.018 111.479 162.321 111.615 162.6 111.351C162.953 110.975 163.308 110.597 163.589 110.161Z" fill="white"/>
<path d="M145.227 149.547C144.837 149.919 144.509 150.379 144.368 150.9C144.228 151.42 144.298 152.006 144.626 152.402C144.955 152.798 145.56 152.954 146.027 152.697C146.487 152.444 146.709 151.896 146.853 151.386C147.005 150.844 147.112 150.29 147.173 149.734C147.201 149.481 147.233 149.285 147.195 148.985C147.136 148.598 146.864 148.387 146.517 148.585C146.068 148.878 145.618 149.173 145.227 149.547Z" fill="white"/>
<g opacity="0.3">
<path d="M186.339 135.044C185.903 134.525 185.288 134.194 184.675 133.906C179.474 131.461 173.517 131.239 168.051 129.464C167.688 129.346 167.305 129.206 167.074 128.902C166.629 128.318 166.957 127.486 167.295 126.834C168.241 125.012 169.187 123.189 170.132 121.367C170.579 120.506 171.039 119.572 170.905 118.611C170.743 117.46 169.779 116.606 168.836 115.928C164.78 113.012 159.86 111.312 154.869 111.103C152.916 111.022 150.776 111.237 149.365 112.59C147.977 113.922 147.655 116.048 147.908 117.955C148.133 119.652 148.656 121.649 147.457 122.871C146.43 123.917 144.162 124.38 143.87 121.918C142.636 118.105 140.89 114.458 138.694 111.105C137.887 109.874 136.98 108.645 135.7 107.92C134.142 107.038 132.239 107.021 130.468 107.28C122.736 108.41 116.056 114.794 114.576 122.467C114.457 123.083 114.372 123.742 114.613 124.322C114.918 125.053 115.669 125.491 116.404 125.787C119.143 126.888 122.22 126.73 125.139 126.281C128.057 125.833 130.956 125.111 133.909 125.138C136.861 125.166 139.972 126.068 141.882 128.32C142.111 128.59 142.324 128.886 142.415 129.227C142.8 130.66 141.051 131.633 139.713 132.274C138.548 132.833 137.462 133.556 136.498 134.416C135.879 134.968 135.27 135.682 135.323 136.509C135.357 137.03 135.654 137.497 135.989 137.897C137.384 139.569 139.286 141.797 141.208 142.82C145.607 145.16 148.987 145.459 154.49 146.064C155.174 146.139 157.487 146.242 158.155 146.077C159.569 145.724 159.647 143.017 160.01 141.605C160.373 140.192 160.629 138.624 161.721 137.659C163.049 136.486 165.172 136.699 166.677 137.634C168.183 138.568 169.232 140.063 170.314 141.466C171.397 142.868 172.628 144.271 174.292 144.879C176.89 145.829 179.749 144.596 182.137 143.199C184.253 141.961 186.451 140.329 186.937 137.926C187.139 136.931 186.991 135.823 186.339 135.044Z" fill="white"/>
</g>
<path d="M102.566 131.95C102.545 131.965 102.328 131.687 101.953 131.17C101.761 130.914 101.537 130.593 101.313 130.197C101.086 129.803 100.8 129.369 100.564 128.847C100.306 128.334 100.032 127.769 99.8004 127.136C99.5318 126.516 99.3334 125.823 99.1066 125.099C98.7104 123.636 98.4057 121.989 98.3022 120.239C98.22 118.488 98.3483 116.817 98.5878 115.32C98.7366 114.576 98.8607 113.866 99.0619 113.221C99.2257 112.566 99.439 111.976 99.6402 111.439C99.8195 110.895 100.058 110.432 100.243 110.017C100.422 109.599 100.611 109.257 100.776 108.982C101.094 108.428 101.28 108.129 101.302 108.142C101.374 108.18 100.633 109.39 99.8854 111.528C99.7019 112.064 99.5056 112.651 99.3575 113.3C99.1711 113.939 99.0605 114.642 98.923 115.376C98.7055 116.853 98.5899 118.497 98.67 120.22C98.7728 121.942 99.0619 123.564 99.434 125.01C99.6487 125.725 99.833 126.412 100.085 127.027C100.301 127.657 100.559 128.22 100.798 128.733C101.768 130.779 102.634 131.905 102.566 131.95Z" fill="white"/>
<path d="M106.581 103.739C106.63 103.836 105.842 104.288 105.031 105.035C104.212 105.775 103.689 106.518 103.597 106.461C103.511 106.418 103.917 105.546 104.781 104.763C105.641 103.974 106.546 103.649 106.581 103.739Z" fill="white"/>
<path d="M243.957 89.9046C242.621 74.0568 232.209 43.6674 184.071 37.8852C140.617 32.665 124.501 51.5934 117.131 66.8615C112.723 75.9916 117.578 90.3766 125.258 96.9951C135.914 106.18 150.523 110.352 163.628 113.486C183.947 118.344 198.984 119.081 217.799 117.579C230.973 116.527 239.752 107.606 242.709 101.47C243.997 98.8008 244.206 92.8584 243.957 89.9046Z" fill="#E49D67"/>
<path opacity="0.3" d="M160.64 61.0475C160.64 61.0475 158.319 60.8243 156.641 63.0914C155.698 64.3656 156.241 65.4188 157.087 65.8971C157.916 66.3663 159.228 65.7774 159.854 64.7639C161.214 62.5634 160.64 61.0475 160.64 61.0475Z" fill="black"/>
<path opacity="0.3" d="M138.035 61.8507C138.035 61.8507 140.054 63.0151 142.521 61.6466C143.907 60.8777 143.849 59.6942 143.278 58.9082C142.717 58.1379 141.28 58.1308 140.29 58.7934C138.14 60.2335 138.035 61.8507 138.035 61.8507Z" fill="black"/>
<path opacity="0.3" d="M167.198 50.3765C167.198 50.3765 165.482 48.8032 162.775 49.6005C161.254 50.0484 161.053 51.2149 161.44 52.105C161.819 52.9774 163.221 53.297 164.332 52.8661C166.743 51.9299 167.198 50.3765 167.198 50.3765Z" fill="black"/>
<path opacity="0.3" d="M182.003 62.5663C182.003 62.5663 181.954 60.2383 179.508 58.8329C178.134 58.0427 177.151 58.7032 176.775 59.5976C176.406 60.4742 177.143 61.7088 178.223 62.2141C180.566 63.3111 182.003 62.5663 182.003 62.5663Z" fill="black"/>
<path opacity="0.3" d="M169.695 72.1489C169.695 72.1489 167.636 73.2382 167.48 76.0552C167.392 77.6385 168.423 78.2189 169.391 78.1537C170.34 78.0892 171.112 76.8766 171.078 75.6853C171.006 73.0979 169.695 72.1489 169.695 72.1489Z" fill="black"/>
<path opacity="0.3" d="M191.958 67.9932C191.958 67.9932 190.185 69.5027 190.641 72.2857C190.898 73.8505 192.031 74.1942 192.962 73.9207C193.875 73.6528 194.365 72.3013 194.074 71.1454C193.443 68.6367 191.958 67.9932 191.958 67.9932Z" fill="black"/>
<path opacity="0.3" d="M214.065 83.5459C214.065 83.5459 213.899 81.2235 211.385 79.9429C209.973 79.2236 209.024 79.9322 208.694 80.8443C208.37 81.7387 209.168 82.9343 210.272 83.3843C212.667 84.3616 214.065 83.5459 214.065 83.5459Z" fill="black"/>
<path opacity="0.3" d="M222.866 74.0959C222.866 74.0959 223.97 72.0456 222.534 69.6176C221.726 68.2534 220.546 68.3441 219.778 68.9373C219.026 69.5184 219.059 70.9557 219.75 71.9273C221.249 74.0356 222.866 74.0959 222.866 74.0959Z" fill="black"/>
<path opacity="0.3" d="M206.184 58.9609C206.184 58.9609 207.262 61.0253 210.077 61.1975C211.66 61.2946 212.246 60.267 212.186 59.2982C212.127 58.3493 210.918 57.5704 209.727 57.5974C207.14 57.6555 206.184 58.9609 206.184 58.9609Z" fill="black"/>
<path opacity="0.3" d="M181.638 49.4155C181.638 49.4155 182.716 51.4799 185.531 51.6521C187.114 51.7492 187.701 50.7216 187.64 49.7528C187.581 48.8039 186.372 48.025 185.181 48.0519C182.594 48.1101 181.638 49.4155 181.638 49.4155Z" fill="black"/>
<path d="M160.907 59.5046C160.907 59.5046 158.587 59.2813 156.909 61.5484C155.965 62.8227 156.508 63.8758 157.354 64.3542C158.184 64.8233 159.495 64.2344 160.122 63.221C161.482 61.0198 160.907 59.5046 160.907 59.5046Z" fill="#FFF1E7"/>
<path d="M138.303 60.3087C138.303 60.3087 140.322 61.4731 142.789 60.1046C144.175 59.3357 144.117 58.1522 143.546 57.3662C142.985 56.5959 141.547 56.5888 140.557 57.2514C138.408 58.6915 138.303 60.3087 138.303 60.3087Z" fill="#FFF1E7"/>
<path d="M167.467 48.8325C167.467 48.8325 165.75 47.2592 163.044 48.0565C161.523 48.5044 161.322 49.6709 161.709 50.561C162.088 51.4334 163.49 51.7531 164.6 51.3222C167.012 50.3853 167.467 48.8325 167.467 48.8325Z" fill="#FFF1E7"/>
<path d="M182.271 61.025C182.271 61.025 182.222 58.6969 179.776 57.2916C178.401 56.5021 177.419 57.1619 177.043 58.0563C176.673 58.9329 177.411 60.1675 178.49 60.6728C180.833 61.7691 182.271 61.025 182.271 61.025Z" fill="#FFF1E7"/>
<path d="M169.962 70.604C169.962 70.604 167.904 71.6933 167.747 74.5103C167.66 76.0935 168.691 76.6739 169.659 76.6087C170.608 76.5443 171.379 75.331 171.345 74.1397C171.272 71.5536 169.962 70.604 169.962 70.604Z" fill="#FFF1E7"/>
<path d="M192.226 66.4497C192.226 66.4497 190.453 67.9592 190.909 70.7423C191.166 72.307 192.298 72.6508 193.229 72.3772C194.142 72.1093 194.633 70.7578 194.342 69.602C193.711 67.0925 192.226 66.4497 192.226 66.4497Z" fill="#FFF1E7"/>
<path d="M214.332 82.0024C214.332 82.0024 214.166 79.68 211.653 78.3994C210.24 77.6801 209.292 78.3888 208.962 79.3009C208.637 80.1945 209.436 81.3908 210.539 81.8408C212.934 82.8181 214.332 82.0024 214.332 82.0024Z" fill="#FFF1E7"/>
<path d="M223.133 72.5517C223.133 72.5517 224.237 70.5015 222.8 68.0742C221.993 66.71 220.813 66.8007 220.045 67.3938C219.292 67.975 219.325 69.4122 220.016 70.3838C221.515 72.4922 223.133 72.5517 223.133 72.5517Z" fill="#FFF1E7"/>
<path d="M206.451 57.416C206.451 57.416 207.529 59.4804 210.345 59.6526C211.927 59.7497 212.514 58.7221 212.454 57.7533C212.395 56.8044 211.186 56.0255 209.995 56.0524C207.408 56.1105 206.451 57.416 206.451 57.416Z" fill="#FFF1E7"/>
<path d="M181.905 47.872C181.905 47.872 182.983 49.9364 185.799 50.1086C187.381 50.2057 187.968 49.1781 187.908 48.2093C187.849 47.2604 186.64 46.4816 185.449 46.5085C182.863 46.5666 181.905 47.872 181.905 47.872Z" fill="#FFF1E7"/>
<path d="M202.933 118.598C202.933 118.605 202.841 118.608 202.661 118.607C202.463 118.604 202.199 118.6 201.863 118.595C201.163 118.577 200.13 118.561 198.8 118.496C196.141 118.386 192.294 118.165 187.559 117.679C182.824 117.201 177.201 116.45 171.007 115.33C167.911 114.764 164.673 114.112 161.33 113.37C157.992 112.619 154.525 111.844 151.051 110.757C147.574 109.688 144.244 108.447 141.08 107.13C139.501 106.469 137.95 105.799 136.484 105.032C135.017 104.271 133.622 103.448 132.3 102.587C129.653 100.867 127.303 98.9888 125.243 97.0853C123.179 95.1938 121.401 93.2321 120.147 91.1904C117.608 87.1182 116.617 83.2998 116.088 80.7074C115.57 78.0916 115.519 76.6133 115.519 76.6133C115.525 76.6126 115.542 76.7033 115.57 76.8805C115.598 77.0761 115.635 77.3369 115.682 77.6685C115.786 78.3602 115.945 79.38 116.228 80.6776C116.798 83.2516 117.825 87.0367 120.367 91.0493C121.623 93.0613 123.385 94.9833 125.45 96.8592C127.507 98.7408 129.85 100.599 132.485 102.301C133.801 103.152 135.188 103.965 136.645 104.717C138.1 105.475 139.64 106.136 141.218 106.795C144.374 108.104 147.695 109.338 151.159 110.404C154.616 111.485 158.071 112.26 161.407 113.016C164.744 113.762 167.977 114.421 171.067 114.995C177.248 116.131 182.858 116.908 187.585 117.419C192.311 117.937 196.151 118.198 198.806 118.352C200.118 118.424 201.144 118.481 201.864 118.52C202.199 118.541 202.462 118.557 202.659 118.569C202.841 118.582 202.934 118.592 202.933 118.598Z" fill="#263238"/>
<path d="M221.59 108.35C221.597 108.375 221.218 108.485 220.526 108.665C219.836 108.849 218.827 109.074 217.572 109.312C215.064 109.793 211.552 110.254 207.65 110.345C203.746 110.43 200.216 110.128 197.689 109.762C196.425 109.58 195.406 109.402 194.709 109.249C194.01 109.101 193.627 109.007 193.632 108.982C193.637 108.957 194.029 109.003 194.734 109.107C195.438 109.216 196.459 109.355 197.722 109.503C200.249 109.802 203.76 110.061 207.641 109.976C211.521 109.885 215.017 109.468 217.527 109.056C218.783 108.851 219.797 108.666 220.495 108.525C221.194 108.388 221.584 108.325 221.59 108.35Z" fill="#263238"/>
<g opacity="0.3">
<path d="M151.465 68.9958C152.436 69.1276 153.213 70.1028 153.125 71.0786C153.037 72.0545 152.098 72.8745 151.12 72.8305C150.14 72.7866 149.279 71.8858 149.278 70.9057C149.278 69.9256 150.139 69.0241 151.117 68.9795" fill="#931A00"/>
</g>
<g opacity="0.3">
<path d="M154.555 50.1696C155.526 50.3021 156.303 51.2766 156.215 52.2525C156.127 53.2283 155.188 54.0483 154.209 54.0044C153.23 53.9604 152.369 53.0597 152.368 52.0795C152.367 51.0994 153.229 50.198 154.208 50.1533" fill="#931A00"/>
</g>
<g opacity="0.3">
<path d="M225.249 79.1761C226.847 79.3937 228.125 80.9982 227.981 82.6048C227.835 84.2114 226.29 85.5607 224.679 85.4884C223.067 85.4161 221.649 83.9336 221.648 82.3206C221.648 80.7076 223.064 79.2236 224.676 79.1499" fill="#931A00"/>
</g>
<g opacity="0.3">
<path d="M196.622 55.0191C197.422 55.1275 198.061 55.9298 197.988 56.7334C197.916 57.5371 197.143 58.2118 196.337 58.1756C195.532 58.1395 194.822 57.3982 194.822 56.5917C194.822 55.7852 195.53 55.0432 196.336 55.0063" fill="#D27A4B"/>
</g>
<g opacity="0.3">
<path d="M155.464 75.2983C155.075 75.4145 154.818 75.8908 154.982 76.2628C155.146 76.6349 155.727 76.7469 155.986 76.4336C156.245 76.1197 155.868 75.2501 155.464 75.2983Z" fill="#931A00"/>
</g>
<path d="M144.852 44.1736C144.857 44.1856 144.748 44.238 144.538 44.3273C144.288 44.4287 143.983 44.5513 143.616 44.7001C143.213 44.8532 142.723 45.0467 142.166 45.3046C141.609 45.5576 140.962 45.8163 140.279 46.1756C139.587 46.5151 138.833 46.89 138.05 47.3471C137.25 47.7716 136.439 48.2988 135.576 48.836C133.878 49.9572 132.077 51.2895 130.314 52.8387C128.563 54.4049 127.024 56.0335 125.707 57.5841C125.071 58.3772 124.45 59.1199 123.932 59.8633C123.385 60.5847 122.922 61.2899 122.502 61.9355C122.064 62.5698 121.729 63.1814 121.412 63.7044C121.089 64.2253 120.838 64.6888 120.638 65.0707C120.446 65.4173 120.288 65.705 120.157 65.941C120.044 66.1387 119.979 66.2394 119.967 66.2344C119.955 66.2287 119.998 66.1168 120.09 65.9091C120.204 65.6639 120.342 65.3656 120.509 65.0055C120.691 64.6122 120.924 64.1367 121.231 63.603C121.534 63.0673 121.854 62.4429 122.281 61.7959C122.689 61.1368 123.143 60.4196 123.684 59.6847C124.194 58.9285 124.811 58.1731 125.445 57.368C126.757 55.7926 128.302 54.1427 130.068 52.5638C131.846 51.0011 133.669 49.6652 135.391 48.5511C136.267 48.0175 137.089 47.4966 137.901 47.0806C138.696 46.632 139.463 46.2677 140.166 45.9417C140.86 45.5959 141.518 45.3521 142.086 45.1161C142.652 44.8752 143.152 44.7001 143.565 44.5676C143.942 44.445 144.255 44.3429 144.512 44.2593C144.733 44.1906 144.849 44.1615 144.852 44.1736Z" fill="white"/>
<path d="M152.335 42.2538C152.362 42.3523 151.517 42.6634 150.449 42.9476C149.38 43.2325 148.494 43.3834 148.467 43.2849C148.441 43.1864 149.286 42.876 150.354 42.5911C151.422 42.3062 152.309 42.1553 152.335 42.2538Z" fill="white"/>
<path opacity="0.3" d="M171.009 115.33C167.913 114.764 164.675 114.111 161.332 113.369C157.994 112.619 154.527 111.844 151.053 110.757C147.576 109.688 144.246 108.447 141.082 107.13C139.503 106.469 137.952 105.799 136.486 105.032C135.019 104.27 133.624 103.448 132.302 102.587C129.655 100.867 127.305 98.9885 125.245 97.085C124.567 96.4635 123.924 95.8342 123.316 95.1978C122.05 95.4479 120.637 95.7647 119.133 96.1722C119.69 101.665 123.017 106.613 127.281 110.131C131.6 113.695 136.825 115.97 142.069 117.932C149.47 120.7 157.069 122.937 164.789 124.622C175.347 126.926 187.083 127.992 196.359 122.516C195.016 121.032 193.493 119.543 191.831 118.068C190.502 117.962 189.082 117.835 187.559 117.679C182.826 117.201 177.203 116.449 171.009 115.33Z" fill="black"/>
<path opacity="0.3" d="M132.112 211.119L132.329 212.44C145.565 219.339 161.023 221.262 175.586 217.989C190.148 214.717 203.461 206.15 212.473 194.252C212.133 194.036 211.791 193.819 211.448 193.603C201.577 199.338 185.379 205.974 172.856 208.847C161.509 211.449 146.149 212.943 132.112 211.119Z" fill="black"/>
<path opacity="0.3" d="M229.507 277.728C226.321 278.231 223.563 275.259 220.347 275.024C218.946 274.921 217.553 275.351 216.149 275.314C214.745 275.278 213.161 274.534 212.923 273.15C212.566 274.861 210.522 275.768 208.795 275.499C207.068 275.229 205.608 274.119 204.229 273.045C207.126 277.307 206.136 283.74 202.092 286.933C198.047 290.126 191.56 289.597 188.087 285.79C187.614 287.494 185.623 288.4 183.861 288.246C182.1 288.091 180.521 287.142 179.013 286.217C178.082 288.508 176.774 291.117 174.339 291.543C173.576 291.677 172.76 291.573 172.055 291.891C170.865 292.429 170.485 293.886 169.989 295.093C168.873 297.812 166.369 300.005 163.459 300.419C160.548 300.833 157.375 299.261 156.224 296.557C155.889 298.579 153.997 300.228 151.948 300.287C149.899 300.345 147.918 298.806 147.467 296.807C145.435 298.464 142.341 297.24 140.353 295.531C138.92 294.299 137.699 292.83 136.726 291.212C136.784 294.347 137.755 297.47 139.563 300.034C142.307 303.923 146.905 306.44 151.66 306.657C154.858 311.621 162.007 313.548 167.267 310.863C169.45 309.748 171.335 307.952 173.731 307.431C176.118 306.911 178.92 307.668 180.832 306.146C182.033 305.19 182.49 303.605 183.246 302.269C184.308 300.391 186.069 298.919 188.105 298.207C192.811 296.561 198.735 298.809 202.601 295.66C205.561 297.387 209.514 297.236 212.334 295.29C215.155 293.343 216.699 289.702 216.134 286.321C219.54 287.518 223.688 286.016 225.537 282.917C228.932 283.296 232.444 283.666 235.702 282.641C238.961 281.616 241.916 278.804 241.978 275.389C242.024 272.833 240.499 270.574 238.561 268.823C237.472 270.862 235.845 272.716 234.27 274.433C232.938 275.883 231.453 277.421 229.507 277.728Z" fill="black"/>
</svg>
