<svg width="70" height="24" viewBox="0 0 70 24" fill="none" xmlns="http://www.w3.org/2000/svg">
<path d="M13.392 22.9679C11.1094 22.9465 9.17872 22.5732 7.60005 21.8479C6.02138 21.1225 4.82672 19.9599 4.01605 18.3599C3.20538 16.7385 2.80005 14.5945 2.80005 11.9279C2.80005 9.60254 3.17338 7.5972 3.92005 5.91187C4.68805 4.22654 5.79738 2.9252 7.24805 2.00787C8.69872 1.0692 10.48 0.599871 12.592 0.599871C14.448 0.599871 16.0694 0.866538 17.456 1.39987C18.8427 1.9332 19.9307 2.7012 20.72 3.70387C21.5307 4.6852 21.9787 5.85854 22.064 7.22387C22.1494 8.5252 21.9254 9.65587 21.392 10.6159C20.88 11.5759 20.112 12.4292 19.088 13.1759C19.8347 13.3039 20.5067 13.7199 21.104 14.4239C21.7227 15.1279 22.032 15.9812 22.032 16.9839C22.032 17.6665 21.8934 18.3599 21.616 19.0639C21.3387 19.7679 20.8694 20.4185 20.208 21.0159C19.568 21.6132 18.6827 22.0932 17.552 22.4559C16.4427 22.7972 15.056 22.9679 13.392 22.9679ZM11.184 11.0319C11.632 11.2239 12.1654 11.3199 12.784 11.3199C13.4027 11.2985 13.9467 11.1279 14.416 10.8079C14.9067 10.4879 15.152 9.9972 15.152 9.33587C15.152 8.8452 15.0027 8.45054 14.704 8.15187C14.4267 7.8532 14.0747 7.65054 13.648 7.54387C13.2214 7.41587 12.784 7.36254 12.336 7.38387C11.888 7.4052 11.504 7.5012 11.184 7.67187C10.7787 7.86387 10.5014 8.19454 10.352 8.66387C10.224 9.1332 10.224 9.60254 10.352 10.0719C10.5014 10.5199 10.7787 10.8399 11.184 11.0319ZM11.184 18.5199C11.632 18.6905 12.1654 18.7759 12.784 18.7759C13.4027 18.7545 13.9467 18.6052 14.416 18.3279C14.9067 18.0505 15.152 17.6239 15.152 17.0479C15.152 16.6212 15.0027 16.2799 14.704 16.0239C14.4267 15.7465 14.0747 15.5545 13.648 15.4479C13.2214 15.3412 12.784 15.3092 12.336 15.3519C11.888 15.3732 11.504 15.4479 11.184 15.5759C10.7787 15.7465 10.5014 16.0345 10.352 16.4399C10.224 16.8452 10.224 17.2505 10.352 17.6559C10.5014 18.0612 10.7787 18.3492 11.184 18.5199Z" fill="#EEF0ED"/>
<path d="M29.45 23.0319C27.8714 23.0532 26.4847 22.7332 25.29 22.0719C24.1167 21.3892 23.1887 20.4719 22.506 19.3199C21.8447 18.1465 21.4927 16.8559 21.45 15.4479C21.4287 13.9972 21.7594 12.7172 22.442 11.6079C23.1247 10.4772 24.074 9.5812 25.29 8.91987C26.506 8.25854 27.8927 7.92787 29.45 7.92787C30.986 7.90654 32.3407 8.22654 33.514 8.88787C34.7087 9.5492 35.658 10.4452 36.362 11.5759C37.066 12.7065 37.4394 13.9972 37.482 15.4479C37.5034 16.8345 37.1727 18.1039 36.49 19.2559C35.8074 20.3865 34.858 21.2932 33.642 21.9759C32.426 22.6372 31.0287 22.9892 29.45 23.0319ZM29.546 18.3599C30.122 18.3599 30.6234 18.1359 31.05 17.6879C31.4767 17.2399 31.69 16.7172 31.69 16.1199C31.69 15.5225 31.4767 15.0105 31.05 14.5839C30.6234 14.1359 30.122 13.9119 29.546 13.9119C28.97 13.9119 28.4687 14.1359 28.042 14.5839C27.6154 15.0105 27.402 15.5225 27.402 16.1199C27.402 16.7172 27.6154 17.2399 28.042 17.6879C28.4687 18.1359 28.97 18.3599 29.546 18.3599Z" fill="#EEF0ED"/>
<path d="M46.034 22.9999C44.498 22.9999 43.2074 22.7865 42.162 22.3599C41.1167 21.9119 40.2527 21.3359 39.57 20.6319C38.9087 19.9279 38.386 19.1599 38.002 18.3279C37.6394 17.4959 37.3727 16.6745 37.202 15.8639C37.0314 15.0532 36.9247 14.3172 36.882 13.6559C36.8607 12.9945 36.85 12.5039 36.85 12.1839C36.85 11.2025 36.9034 10.1785 37.01 9.11187C37.1167 8.0452 37.2874 7.01054 37.522 6.00787C37.7567 4.98387 38.066 4.06654 38.45 3.25587C38.8554 2.4452 39.3354 1.79454 39.89 1.30387C40.4447 0.813204 41.106 0.567871 41.874 0.567871C42.5567 0.567871 43.1754 0.791871 43.73 1.23987C44.306 1.68787 44.594 2.3812 44.594 3.31987C44.594 4.2372 44.4447 5.14387 44.146 6.03987C43.8687 6.91454 43.6874 7.81054 43.602 8.72787C44.0927 8.45054 44.6154 8.25854 45.17 8.15187C45.7247 8.02387 46.2687 7.95987 46.802 7.95987C47.9327 7.95987 49.0207 8.22654 50.066 8.75987C51.1114 9.27187 51.9647 10.0612 52.626 11.1279C53.3087 12.1945 53.65 13.5599 53.65 15.2239C53.65 16.5252 53.3407 17.7732 52.722 18.9679C52.1247 20.1625 51.25 21.1332 50.098 21.8799C48.9674 22.6265 47.6127 22.9999 46.034 22.9999ZM45.842 17.9439C46.418 17.9439 46.9194 17.7305 47.346 17.3039C47.794 16.8559 48.018 16.3332 48.018 15.7359C48.018 15.1385 47.794 14.6159 47.346 14.1679C46.9194 13.7199 46.418 13.4959 45.842 13.4959C45.266 13.4959 44.7647 13.7199 44.338 14.1679C43.9114 14.6159 43.698 15.1385 43.698 15.7359C43.698 16.3332 43.9114 16.8559 44.338 17.3039C44.7647 17.7305 45.266 17.9439 45.842 17.9439Z" fill="#EEF0ED"/>
<path d="M61.0313 23.0319C59.4526 23.0532 58.066 22.7332 56.8713 22.0719C55.698 21.3892 54.77 20.4719 54.0873 19.3199C53.426 18.1465 53.074 16.8559 53.0313 15.4479C53.01 13.9972 53.3406 12.7172 54.0233 11.6079C54.706 10.4772 55.6553 9.5812 56.8713 8.91987C58.0873 8.25854 59.474 7.92787 61.0313 7.92787C62.5673 7.90654 63.922 8.22654 65.0953 8.88787C66.29 9.5492 67.2393 10.4452 67.9433 11.5759C68.6473 12.7065 69.0206 13.9972 69.0633 15.4479C69.0846 16.8345 68.754 18.1039 68.0713 19.2559C67.3886 20.3865 66.4393 21.2932 65.2233 21.9759C64.0073 22.6372 62.61 22.9892 61.0313 23.0319ZM61.1273 18.3599C61.7033 18.3599 62.2046 18.1359 62.6313 17.6879C63.058 17.2399 63.2713 16.7172 63.2713 16.1199C63.2713 15.5225 63.058 15.0105 62.6313 14.5839C62.2046 14.1359 61.7033 13.9119 61.1273 13.9119C60.5513 13.9119 60.05 14.1359 59.6233 14.5839C59.1966 15.0105 58.9833 15.5225 58.9833 16.1199C58.9833 16.7172 59.1966 17.2399 59.6233 17.6879C60.05 18.1359 60.5513 18.3599 61.1273 18.3599Z" fill="#EEF0ED"/>
</svg>
