<svg width="24" height="24" viewBox="0 0 24 24" fill="none" xmlns="http://www.w3.org/2000/svg">
<path d="M18.4386 3.59844C18.9436 3.09349 19.7622 3.09349 20.2672 3.59844C20.7721 4.10338 20.7721 4.92206 20.2672 5.42701L5.68782 20.0064C5.18287 20.5113 4.36419 20.5113 3.85925 20.0064C3.3543 19.5014 3.3543 18.6828 3.85925 18.1778L18.4386 3.59844Z" fill="#60635E"/>
<path d="M14.9517 5.44922C14.0395 5.17756 13.0502 5.01085 12 5.00006C8.88552 5.03205 6.3062 6.43555 4.68483 7.88037C3.86238 8.62158 3.18983 9.44123 2.76254 10.0955C2.5432 10.4343 2.35316 10.7855 2.2342 11.0577C2.12051 11.3201 2 11.6629 2 12.0001C2 12.3372 2.12051 12.68 2.2342 12.9424C2.35316 13.2147 2.5432 13.5659 2.76254 13.9046C3.1529 14.5023 3.74794 15.2381 4.47498 15.926L5.88896 14.512C5.24579 13.9197 4.7817 13.3435 4.43916 12.8143C4.2622 12.5436 4.15181 12.3402 4.06943 12.1475C4.04023 12.0801 4.02279 12.0316 4.0125 12.0001C4.02279 11.9685 4.04023 11.92 4.06943 11.8526C4.15181 11.66 4.2622 11.4565 4.43916 11.1859C4.80449 10.6214 5.30807 10.0035 6.01971 9.36975C7.46653 8.06457 9.38721 6.96808 12 7.00006C12.4603 6.99443 12.8992 7.02382 13.3177 7.08321L14.9517 5.44922Z" fill="#60635E"/>
<path d="M9.07635 11.3246C9.33279 10.2101 10.2101 9.33286 11.3245 9.07642L9.07635 11.3246Z" fill="#60635E"/>
<path d="M14.9882 12.2678L12.2678 14.9883C13.711 14.8606 14.8606 13.711 14.9882 12.2678Z" fill="#60635E"/>
<path d="M10.3866 16.8694C10.893 16.9603 11.43 17.007 12 17.0001C14.6128 17.0321 16.5335 15.9356 17.9803 14.6304C18.6919 13.9966 19.1955 13.3787 19.5608 12.8143C19.7378 12.5436 19.8482 12.3402 19.9306 12.1475C19.9598 12.0801 19.9772 12.0316 19.9875 12.0001C19.9772 11.9685 19.9598 11.92 19.9306 11.8526C19.8482 11.66 19.7378 11.4565 19.5608 11.1859C19.1955 10.6214 18.6919 10.0035 17.9803 9.36975C17.9638 9.35491 17.9473 9.34009 17.9307 9.3253L19.347 7.9091C20.1549 8.6427 20.8157 9.44966 21.2375 10.0955C21.4568 10.4343 21.6468 10.7855 21.7658 11.0577C21.8795 11.3201 22 11.6629 22 12.0001C22 12.3372 21.8795 12.68 21.7658 12.9424C21.6468 13.2147 21.4568 13.5659 21.2375 13.9046C20.8102 14.5589 20.1376 15.3786 19.3152 16.1198C17.6938 17.5646 15.1145 18.9681 12 19.0001C10.8486 18.9882 9.77035 18.789 8.7866 18.4694L10.3866 16.8694Z" fill="#60635E"/>
</svg>
